<?xml version="1.0" encoding="UTF-8" standalone="no"?>
<!-- Created with Inkscape (http://www.inkscape.org/) -->

<svg
   width="1255.0233mm"
   height="587.26166mm"
   viewBox="0 0 1255.0233 587.26165"
   version="1.1"
   id="svg5"
   sodipodi:docname="logo-btm-education-clean.svg"
   inkscape:version="1.1.1 (3bf5ae0d25, 2021-09-20)"
   xmlns:inkscape="http://www.inkscape.org/namespaces/inkscape"
   xmlns:sodipodi="http://sodipodi.sourceforge.net/DTD/sodipodi-0.dtd"
   xmlns="http://www.w3.org/2000/svg"
   xmlns:svg="http://www.w3.org/2000/svg">
  <sodipodi:namedview
     id="namedview7"
     pagecolor="#ffffff"
     bordercolor="#666666"
     borderopacity="1.0"
     inkscape:pageshadow="2"
     inkscape:pageopacity="0.0"
     inkscape:pagecheckerboard="0"
     inkscape:document-units="mm"
     showgrid="false"
     fit-margin-top="0"
     fit-margin-left="0"
     fit-margin-right="0"
     fit-margin-bottom="0"
     inkscape:zoom="0.58"
     inkscape:cx="1837.931"
     inkscape:cy="1510.3448"
     inkscape:window-width="3840"
     inkscape:window-height="2066"
     inkscape:window-x="-11"
     inkscape:window-y="-11"
     inkscape:window-maximized="1"
     inkscape:current-layer="g2143" />
  <defs
     id="defs2" />
  <g
     inkscape:groupmode="layer"
     id="layer2"
     inkscape:label="mould"
     transform="translate(618.25461,227.70946)"
     style="display:inline">
    <g
       id="g2143"
       transform="translate(3.1127337,9.3382307)">
      <path
         style="fill:#feef61;stroke-width:0.352778"
         d="m -352.01748,33.135021 c 0,-0.873125 0.0688,-1.230313 0.15289,-0.79375 0.0841,0.436562 0.0841,1.150937 0,1.5875 -0.0841,0.436562 -0.15289,0.07938 -0.15289,-0.79375 z M -604.68064,-129.76012 c -0.43463,-2.47386 -2.04696,-11.64167 -3.58296,-20.37292 -1.536,-8.73125 -4.30702,-24.51805 -6.15783,-35.08179 -3.7016,-21.12731 -4.57793,-25.56294 -6.17179,-31.2392 -1.05799,-3.76783 -1.0422,-4.38275 0.11314,-4.40555 0.15056,-0.003 7.45306,-1.26893 16.22778,-2.81323 8.77472,-1.54431 25.00278,-4.39397 36.06237,-6.33259 11.05958,-1.93862 24.3152,-4.27027 29.45694,-5.18146 5.14173,-0.91119 9.78517,-1.73079 10.31875,-1.82134 0.59041,-0.1002 0.97014,-0.006 0.97014,0.24021 0,0.22267 -8.37372,12.901 -18.60827,28.17407 -10.23455,15.27307 -24.82393,37.05609 -32.42086,48.40671 -7.59692,11.35063 -14.96328,22.28603 -16.3697,24.30089 -2.65544,3.80423 -8.28498,10.62412 -8.76979,10.62412 -0.15273,0 -0.6333,-2.02407 -1.06792,-4.49792 z m 977.57786,-66.8952 c -0.17265,-0.21844 -0.42401,-4.77632 -0.55856,-10.12863 l -0.24461,-9.73146 22.51216,-0.23421 c 28.50574,-0.29656 52.43833,-0.26912 54.26212,0.0622 l 1.41111,0.25637 -0.0406,2.01102 c -0.0222,1.10607 -0.22349,2.23144 -0.44708,2.50083 -0.22355,0.2694 -1.39594,0.6739 -2.60526,0.8989 -1.20932,0.225 -3.54813,0.71083 -5.19737,1.07963 -1.64923,0.3688 -4.34798,0.92693 -5.99722,1.24028 -1.64924,0.31335 -4.10986,0.79503 -5.46806,1.0704 -1.35819,0.27536 -3.50131,0.67263 -4.7625,0.8828 -1.26118,0.21017 -3.64243,0.68751 -5.29166,1.06074 -4.20617,0.95188 -8.33547,1.78404 -10.40695,2.09727 -1.78272,0.26956 -23.07515,4.47937 -32.00773,6.32837 -3.52559,0.72977 -4.9293,0.89456 -5.15782,0.60548 z"
         id="path2155"
         sodipodi:nodetypes="ssssssscccssssssssssscssccsssssssssss" />
      <path
         style="fill:#feb345;stroke-width:0.352778"
         d="m 410.11209,171.86294 -29.58401,-0.0902 0.19636,-1.14448 c 0.10802,-0.62949 0.30653,-24.03044 0.44111,-52.00212 l 0.24472,-50.857635 12.03318,-2.340638 c 6.61829,-1.28735 16.31946,-3.20004 21.55821,-4.250426 22.76034,-4.56366 42.05679,-8.286895 42.9478,-8.286895 h 0.96326 l -0.22324,54.415974 c -0.17074,41.6118 -0.12156,55.56465 0.20899,59.29775 0.23774,2.68495 0.38008,4.92516 0.31634,4.97822 -0.28741,0.23918 -21.98152,0.36304 -49.10272,0.28035 z M 183.23483,-160.62818 c 0.37267,-1.77606 5.2421,-22.7157 7.56793,-32.54375 1.1479,-4.85069 2.90241,-12.31194 3.89883,-16.58055 1.17062,-5.01479 2.01344,-7.91774 2.38185,-8.20373 0.45046,-0.34974 8.15689,-0.42377 36.72501,-0.35278 l 36.15488,0.0898 4.32947,18.34444 c 2.38121,10.08945 4.43223,19.00859 4.55782,19.82032 0.22807,1.47438 0.22694,1.47623 -1.13115,1.83896 -1.64426,0.43915 -8.20385,1.75449 -56.42341,11.31415 -20.58381,4.0808 -37.62234,7.41963 -37.86346,7.41963 -0.30872,0 -0.36721,-0.33905 -0.19777,-1.14653 z"
         id="path2153"
         sodipodi:nodetypes="ccsscssscsssscssssscsssssss" />
      <path
         style="fill:#fe3457;stroke-width:0.352778"
         d="m -590.50313,174.69159 c -1.82291,-0.10446 -2.20486,-0.23407 -2.20486,-0.74814 0,-0.34202 0.31563,-3.15224 0.7014,-6.24498 0.67434,-5.40618 0.70156,-7.87276 0.70556,-63.9197 0.002,-32.063089 0.0479,-58.296527 0.10146,-58.296527 0.0535,0 16.59414,-2.54 36.75695,-5.644445 20.16281,-3.104444 36.78777,-5.644444 36.94437,-5.644444 0.15658,0 0.2847,17.211393 0.2847,38.247536 0,21.036146 0.0964,38.49865 0.21413,38.80556 0.1897,0.49434 1.62887,0.55738 12.61181,0.55243 16.98973,-0.008 23.39208,-0.60142 31.09489,-2.88383 19.28811,-5.71523 29.34117,-20.673921 30.06477,-44.735584 0.32289,-10.737124 -0.77265,-21.250738 -3.08072,-29.564839 -0.39353,-1.417535 -1.50545,-4.341961 -2.47096,-6.498724 -0.9655,-2.156764 -1.6827,-3.994143 -1.59377,-4.083071 0.223,-0.223005 7.42125,-1.362298 44.06363,-6.974096 22.84449,-3.498646 31.86559,-4.755815 32.27917,-4.498386 0.73481,0.457383 4.19006,7.959556 5.98274,12.989948 2.59801,7.290238 4.88649,17.183393 6.05406,26.171815 0.91333,7.031225 1.28496,21.384211 0.76099,29.390686 -1.39136,21.260591 -8.40245,40.620771 -19.8758,54.884321 -14.57716,18.12216 -35.5865,30.64634 -60.25772,35.921 -9.16134,1.95869 -13.56088,2.40182 -26.45833,2.66492 -12.25177,0.2499 -118.56938,0.34396 -122.67847,0.10855 z m 708.55183,-2.8224 c -1.88098,-0.11843 -2.01828,-0.1851 -1.86154,-0.90392 0.90456,-4.14881 11.95797,-50.85006 12.37435,-52.28231 0.45977,-1.58161 0.70584,-1.92278 1.50195,-2.08269 0.52366,-0.10516 25.95524,-5.12459 56.51461,-11.15431 30.55937,-6.029712 69.53249,-13.72702 86.60694,-17.105125 17.07444,-3.378105 39.91151,-7.894489 50.74902,-10.036412 10.83751,-2.141922 20.07238,-3.894402 20.52193,-3.894402 0.61161,0 0.90988,0.288625 1.1848,1.146528 0.20207,0.63059 2.92417,12.020903 6.04908,25.311811 3.12494,13.2909 8.03356,34.16652 10.90813,46.39027 2.87454,12.22375 5.33676,22.74094 5.47159,23.37153 l 0.24511,1.14653 h -39.67441 -39.67445 l -0.24511,-2.38125 c -0.34484,-3.3504 -2.64241,-15.67575 -7.87495,-42.24514 l -4.51591,-22.93056 -33.87428,-0.0899 -33.87432,-0.09 -5.37951,25.87503 c -4.93677,23.7454 -7.00507,34.55568 -7.61432,39.79693 l -0.23156,1.99207 -2.8896,0.16563 c -3.34056,0.19145 -71.37534,0.19117 -74.41755,-3.2e-4 z"
         id="path2151" />
      <path
         style="fill:#3ed15f;stroke-width:0.352778"
         d="m 551.3043,182.47561 c -0.34897,-0.0916 -1.16667,-1.63551 -2.07931,-3.92571 -1.97309,-4.95134 -5.54175,-12.41252 -8.97657,-18.76767 -20.33185,-37.61853 -53.80926,-99.95807 -53.80926,-100.200269 0,-0.374844 0.22627,-0.437473 11.39162,-3.153128 4.81019,-1.169942 9.08639,-2.127165 9.50266,-2.127165 0.41628,0 5.92628,1.926015 12.24446,4.28003 39.09462,14.565768 60.52414,22.600861 61.10414,22.91127 0.97053,0.519412 1.48266,1.409904 11.78246,20.487592 5.16925,9.57473 10.95089,20.26611 12.84806,23.75861 1.89717,3.4925 7.86024,14.52562 13.25129,24.51805 5.39108,9.99244 11.05034,20.45886 12.57617,23.25868 1.52583,2.79986 2.65204,5.20171 2.50268,5.33746 -0.14941,0.13575 -8.20911,0.5891 -17.9105,1.00746 -36.09667,1.55663 -57.24577,2.47121 -60.50138,2.61641 -1.84326,0.0822 -3.61019,0.0815 -3.92652,0 z m -649.204307,-8.14095 -5.960073,-0.10608 0.22743,-2.69028 c 0.12506,-1.47966 0.22984,-3.26168 0.2328,-3.96 0.004,-0.69833 0.13381,-1.47204 0.29076,-1.71934 0.16891,-0.26613 7.545213,-1.88746 18.074465,-3.9728 9.784008,-1.93774 30.171599,-5.97419 45.305765,-8.96991 15.134165,-2.99572 43.9472884,-8.7013 64.029162,-12.67904 38.16191,-7.55897 86.968778,-17.14387 87.297498,-17.14387 0.10527,0 0.19138,11.58875 0.19138,25.75277 v 25.75278 L 9.9246086,174.51985 C -46.100908,174.47636 -94.621996,174.39303 -97.900007,174.33468 Z m -254.765603,-3.88091 c 0.12034,-1.11566 0.3468,-38.58605 0.50323,-83.267527 0.16925,-48.340043 0.4153,-81.360869 0.6076,-81.5398544 0.17774,-0.1654351 6.67316,-1.2713652 14.43427,-2.4576193 16.82794,-2.57207817 58.99311,-9.0644735 61.11875,-9.4107743 l 1.49931,-0.2442633 0.0484,67.3374513 c 0.0266,37.035599 0.14567,77.299117 0.26458,89.474507 l 0.21619,22.13705 -39.45556,-2.5e-4 -39.45557,-2.4e-4 z m 147.93804,1.46855 c -0.10329,-0.1771 -0.29703,-1.11577 -0.4306,-2.08591 -0.375,-2.72369 -1.51913,-7.41793 -2.70852,-11.1125 -1.08602,-3.37344 -6.70443,-18.02109 -10.55461,-27.51667 -1.14075,-2.8134 -2.54173,-6.38527 -3.1133,-7.9375 -0.9699,-2.63401 -2.55136,-6.68037 -9.03111,-23.10694 -1.41595,-3.589514 -3.62183,-9.225139 -4.90192,-12.523612 -1.28009,-3.298472 -3.68762,-9.489722 -5.35005,-13.758333 -8.16205,-20.957671 -9.93782,-25.492245 -17.13078,-43.744446 -1.98805,-5.044722 -4.8429,-12.347222 -6.34411,-16.227778 -1.50118,-3.880555 -3.63647,-9.3574304 -4.74511,-12.1708332 -1.1086,-2.8134029 -2.2303,-5.7960015 -2.49266,-6.6279961 -0.45586,-1.445701 -0.44242,-1.5278947 0.30392,-1.8553113 0.68104,-0.2987781 11.24469,-2.0022609 26.18091,-4.2219074 2.52236,-0.374844 16.49236,-2.521648 31.04444,-4.770677 14.55208,-2.249032 27.96646,-4.309706 29.80972,-4.579278 1.84326,-0.269572 10.0971,-1.536139 18.34187,-2.814595 8.24477,-1.278456 15.3393,-2.27795 15.76564,-2.2211 0.71081,0.09479 0.55368,0.439886 -1.89432,4.160309 -1.46815,2.231319 -3.79973,5.406319 -5.18124,7.055555 -3.25748,3.888779 -10.61911,11.2478721 -13.94351,13.93868111 -4.18225,3.38517799 -11.32677,8.26876909 -15.90593,10.87241689 -2.65187,1.507829 -4.23807,2.621443 -4.23807,2.975427 0,0.311143 0.29951,1.21115 0.66563,2.000014 2.17381,4.684278 13.42767,29.265665 16.08073,35.124574 1.75278,3.870702 12.42127,27.165921 18.09489,39.511112 1.47133,3.201458 3.58042,7.805208 4.68683,10.230558 1.10638,2.42534 3.40036,7.42597 5.09768,11.1125 1.69732,3.68653 3.68384,8.05215 4.41455,9.70139 0.73067,1.64923 3.03149,6.64986 5.11288,11.1125 2.08139,4.46264 4.38139,9.46326 5.11111,11.1125 0.72972,1.64923 2.90855,6.41173 4.84184,10.58333 4.99029,10.76784 5.29188,11.55104 4.66538,12.11492 -0.27996,0.25195 -3.92214,1.06623 -8.09374,1.80947 -4.1716,0.74323 -10.04535,1.8808 -13.05278,2.5279 l -5.46805,1.17655 -27.72495,0.23886 c -16.62215,0.14319 -27.80012,0.10989 -27.91266,-0.0832 z m 97.91851,-9.15081 c -0.34395,-0.89641 0.11787,-194.581722 0.46475,-194.902987 0.27274,-0.25261 10.119821,-1.799057 66.262672,-10.406302 49.7521408,-7.62749 75.59364,-11.615071 88.547216,-13.663662 l 13.758332,-2.175863 15.552419,-0.127744 15.552419,-0.127741 0.234386,19.130857 c 0.128905,10.521971 0.234385,25.375352 0.234385,33.0075155 V 7.3822423 h -62.79444 -62.79444 V 58.221747 109.06125 l 62.882635,-0.22743 c 53.125613,-0.19214 72.178996,-0.45091 76.288186,-1.03606 0.38404,-0.0547 0.45131,12.66881 0.069,13.05112 -0.20853,0.20856 -7.751766,1.71757 -70.977335,14.19888 -71.211224,14.05777 -141.533205,27.9714 -142.254345,28.14585 -0.54593,0.13208 -0.86329,0 -1.02585,-0.4221 z m 236.02596,-54.1805 c 0.11716,-0.73254 5.06374,-21.938883 10.99241,-47.125196 28.08249,-119.30044 33.66876,-143.056556 33.66876,-143.179584 3.37042,-0.789194 7.04853,-1.128435 10.60532,-1.695386 5.90977,-0.942013 12.7665,-1.988676 18.14607,-2.824759 l 14.46388,-2.259125 27.51667,11.639476 c 52.98256,22.411489 71.55927,30.308593 72.87404,30.979343 0.9072,0.46282 1.44307,1.04068 1.69781,1.830938 0.30883,0.957873 22.36587,94.491674 25.22725,106.977133 0.60039,2.619738 0.76595,3.944366 0.51262,4.100935 -0.54402,0.336222 -5.18682,1.269542 -68.38533,13.74719 -31.52952,6.225053 -77.62275,15.328378 -102.42941,20.229615 l -45.10306,8.91133 z M 263.78105,32.471146 c 0.39359,-0.249464 0.37429,-0.800887 -0.11395,-3.257794 -0.88279,-4.442146 -21.04355,-95.720604 -21.17051,-95.850168 -0.19442,-0.198388 -1.36716,4.919355 -19.28234,84.148402 -1.76428,7.80246 -3.11415,14.430273 -2.9997,14.728473 0.184,0.47958 2.68389,0.541559 21.65035,0.536783 11.79329,-0.0028 21.65555,-0.140536 21.91615,-0.305696 z m 113.45491,34.433175 c -0.27616,-0.719599 -0.008,-79.89779 0.27121,-80.177214 0.13903,-0.138963 1.56778,0.306884 3.175,0.990769 1.60726,0.683888 7.12915,3.0227587 12.27088,5.1974962 5.14174,2.1747374 12.52361,5.2971807 16.40417,6.93876505 3.88055,1.64158435 7.61118,3.23156445 8.29028,3.53329175 0.67909,0.3017273 4.96534,2.1254721 9.525,4.0527676 27.96899,11.8220594 32.44243,13.7903164 32.22011,14.1764534 -0.12856,0.223227 -1.01135,1.542679 -1.96177,2.932112 -2.24155,3.276893 -2.37281,4.230024 -2.38181,17.293735 -0.007,9.497656 -0.0549,10.308872 -0.62445,10.474396 -1.63379,0.47481 -75.64603,15.037573 -76.42539,15.037573 -0.32476,0 -0.66823,-0.202565 -0.76323,-0.450145 z M 486.90288,45.557847 c -0.5794,-0.367835 -7.64377,-15.238159 -7.36942,-15.51249 0.1221,-0.122103 2.40051,0.669357 5.06314,1.758802 6.92563,2.833688 22.40139,9.424893 22.60339,9.626872 0.0938,0.09386 0.0902,0.251097 -0.008,0.349416 -0.15148,0.151472 -14.87053,3.175452 -18.63605,3.828708 -0.67909,0.117813 -1.42292,0.09472 -1.65294,-0.05131 z M 506.54749,34.2254 c -0.6791,-0.362775 -5.7591,-2.566885 -11.28889,-4.898019 -5.52979,-2.331131 -11.48291,-4.852822 -13.22916,-5.603752 l -3.175,-1.365331 -5.11528,-10.215672 c -2.8134,-5.618618 -5.27403,-10.2463499 -5.46806,-10.2838431 -0.19402,-0.037497 -2.15949,2.6980692 -4.36767,6.0790315 -2.20817,3.3809626 -4.13194,6.1472056 -4.27499,6.1472056 -0.14305,0 -3.49575,-1.364816 -7.45039,-3.032926 -3.95464,-1.6681059 -8.61903,-3.6339177 -10.36528,-4.3684681 -1.74625,-0.7345504 -5.87375,-2.4796186 -9.17222,-3.8779275 -3.29847,-1.3983088 -9.48972,-4.0178002 -13.75833,-5.8210944 -4.26861,-1.8032907 -11.17424,-4.7305385 -15.34583,-6.5049931 -4.1716,-1.7744549 -11.82906,-5.0075889 -17.01663,-7.1847429 l -9.4319,-3.95846 -0.005,-46.439212 -0.005,-46.439216 1.14652,-0.20037 c 0.63059,-0.11021 4.32153,-0.68525 8.20209,-1.27787 3.88055,-0.59262 20.46008,-3.13949 36.84336,-5.65971 16.38332,-2.52023 30.15488,-4.58223 30.60347,-4.58223 h 0.81566 l 0.0349,13.67013 c 0.0194,7.51858 0.13828,15.019519 0.26458,16.668755 l 0.22955,2.998611 12.87639,-18.604876 c 10.08503,-14.57168 13.09197,-18.68011 13.8708,-18.95192 0.54694,-0.19087 5.15069,-0.98745 10.23055,-1.77018 5.0799,-0.78273 11.22052,-1.73779 13.64587,-2.12237 2.42535,-0.38457 18.45909,-2.84636 35.63055,-5.47066 17.17146,-2.62429 31.57802,-4.8517 32.01458,-4.9498 1.59604,-0.35865 2.43851,-1.65435 -12.96708,19.94342 -16.59322,23.26278 -38.33629,53.815863 -40.35453,56.705649 l -2.03031,2.907041 3.51289,7.323515 c 1.93209,4.027932 11.35824,23.516015 20.94699,43.306849 19.3107,39.85652 18.35549,37.835474 17.98937,38.061735 -0.29739,0.183804 -49.1944,9.917734 -51.39107,10.230425 -1.00743,0.143404 -1.76435,0.01217 -2.64584,-0.458724 z M -592.51598,-4.347619 c -0.11221,-0.8246181 -0.98958,-10.548056 -1.94972,-21.607639 -1.90901,-21.98931 -6.21394,-70.619833 -7.58833,-85.721232 l -0.86653,-9.52124 0.82296,-1.23848 c 0.45262,-0.68118 3.01014,-3.85787 5.68337,-7.05933 2.67323,-3.20146 5.90597,-7.17021 7.18387,-8.81944 2.29209,-2.95815 15.11853,-18.97974 53.09569,-66.32223 10.66169,-13.2909 19.42329,-24.21542 19.47023,-24.27671 0.31085,-0.40591 20.64014,-1.88333 28.37867,-2.06241 14.72023,-0.34064 23.60451,0.51047 35.45416,3.39652 19.12307,4.65754 34.37899,13.12237 46.56621,25.83753 13.26076,13.83522 21.12671,29.95678 25.35301,51.96202 2.56206,13.33994 2.85147,30.01244 0.73678,42.44525 -2.52878,14.867342 -8.67955,29.678583 -17.3205,41.708302 -4.71514,6.564295 -5.43514,7.347137 -7.45181,8.10223 -1.02188,0.382616 -17.61126,5.290947 -36.86528,10.907399 -19.25401,5.616451 -51.12042,14.917822 -70.81424,20.669709 -64.27116,18.7713939 -79.1506,23.0990566 -79.41957,23.0990566 -0.14573,0 -0.35677,-0.6746875 -0.46897,-1.4993056 z m 85.53569,-66.067059 c 13.79876,-1.265968 18.20291,-1.937925 23.37709,-3.566721 11.7051,-3.684687 20.04862,-11.573274 23.75081,-22.455791 4.68296,-13.76547 3.22532,-35.79474 -3.21537,-48.59361 -3.78824,-7.52794 -8.92505,-12.67007 -16.23046,-16.24725 -6.46958,-3.1679 -13.8031,-4.43888 -23.62783,-4.09494 -5.21197,0.18246 -25.07886,1.81113 -26.8993,2.20519 -1.00459,0.21745 -1.00757,0.54832 -0.0954,10.61745 0.38411,4.23994 2.12579,23.90148 3.8704,43.69231 3.91609,44.424109 3.37276,39.687503 4.55254,39.687503 0.52616,0 7.05904,-0.559862 14.5175,-1.244141 z m 822.67502,22.242374 c -3.00743,-1.201557 -8.24618,-3.382888 -11.64167,-4.847403 -3.39549,-1.464514 -8.15799,-3.487427 -10.58333,-4.495362 -2.42535,-1.007932 -6.0766,-2.554694 -8.11389,-3.437245 -2.03729,-0.882555 -5.60917,-2.382135 -7.9375,-3.332402 -2.32833,-0.950267 -4.55083,-1.879396 -4.93889,-2.064731 -0.38805,-0.185339 -1.97555,-0.870857 -3.52778,-1.523383 -1.55222,-0.652522 -6.71159,-2.855228 -11.46527,-4.894901 -4.75368,-2.039673 -11.42118,-4.865158 -14.81667,-6.278855 -5.53004,-2.302415 -11.84024,-4.981438 -19.31458,-8.200073 -1.4067,-0.605762 -2.55764,-1.231445 -2.55764,-1.39041 0,-0.158962 0.0397,-0.289024 0.0883,-0.289024 0.0486,0 4.61264,-0.707266 10.14236,-1.571706 5.52975,-0.86444 12.75284,-1.979228 16.05131,-2.477308 3.29848,-0.498083 9.48972,-1.451807 13.75834,-2.119394 4.26861,-0.667586 8.55486,-1.310541 9.52499,-1.428792 2.1946,-0.267501 9.27256,-1.372732 14.64028,-2.286095 2.23132,-0.379677 6.35882,-1.005533 9.17222,-1.390792 2.81341,-0.38526 7.00292,-1.03534 9.31009,-1.44463 3.44858,-0.61178 4.24868,-0.66062 4.49763,-0.27453 0.5732,0.88879 1.389,4.029121 4.20028,16.168247 1.55028,6.693959 3.20668,13.758334 3.68092,15.698612 0.47427,1.940277 1.7447,7.337778 2.82317,11.994444 1.07848,4.656667 2.1336,9.129286 2.34467,9.939151 0.2111,0.809868 0.32685,1.620704 0.25728,1.801858 -0.0696,0.181152 -2.58716,-0.653721 -5.59459,-1.855276 z m -667.83592,-61.832266 c -0.0152,-32.1601 -0.14769,-69.58541 -0.29444,-83.16736 -0.14674,-13.58194 -0.23531,-24.73897 -0.1968,-24.79339 0.0385,-0.0544 24.26131,-0.1186 53.82846,-0.14263 36.84308,-0.0299 55.64804,0.0825 59.76376,0.35733 23.90983,1.59665 43.79372,7.59169 59.61136,17.97295 20.03996,13.15242 34.24128,33.34876 41.0949,58.44303 3.39895,12.44506 4.91893,24.07884 5.04847,38.64052 l 0.0705,7.927809 -21.87223,4.334707 c -51.92574,10.29081 -62.77521,12.402037 -62.93131,12.245958 -0.091,-0.09097 0.18436,-2.296852 0.61182,-4.90195 1.17722,-7.174367 1.57614,-15.27623 1.14762,-23.307084 -0.79837,-14.96152 -4.35017,-24.62998 -11.77417,-32.05076 -3.15239,-3.15104 -5.99327,-5.1013 -10.61635,-7.28815 -8.5307,-4.03524 -17.53877,-5.92573 -32.58968,-6.83948 l -3.26319,-0.19811 v 43.01003 43.010034 l -1.85209,0.365774 c -1.01864,0.201175 -18.30606,3.625554 -38.41648,7.609734 -20.11042,3.984177 -36.73948,7.24396 -36.95347,7.24396 -0.2819,0 -0.39668,-16.106838 -0.4167,-58.472922 z m 245.43828,-9.85144 c -0.29859,-24.92119 -0.33626,-99.84625 -0.0504,-100.3087 0.27583,-0.44631 18.6485,-0.46948 19.492485,-0.0246 0.336903,0.1776 3.708188,1.61933 7.49173,3.20384 3.783541,1.58451 8.665738,3.6617 10.849292,4.61598 2.183588,0.95428 4.081321,1.73505 4.217246,1.73505 0.13589,0 2.556228,1.01811 5.378485,2.26247 2.822257,1.24436 8.068239,3.47997 11.657752,4.96801 3.589514,1.48805 9.701389,4.06477 13.581944,5.72605 3.880555,1.66128 8.643055,3.68974 10.583333,4.50768 1.940277,0.81795 5.432777,2.29259 7.76111,3.27699 2.328333,0.9844 6.376458,2.69006 8.9958328,3.79035 2.6193748,1.10029 5.79437456,2.45023 7.05555503,2.99986 5.09326407,2.2197 10.24967517,4.40042 13.75833217,5.8186 3.30895,1.33745 9.109004,3.81317 17.462499,7.45374 1.552222,0.67648 3.436338,1.45572 4.186943,1.73165 0.75057,0.27592 2.576195,1.04029 4.056944,1.69859 1.480714,0.6583 4.279723,1.85582 6.220001,2.66115 1.940277,0.80534 3.845277,1.61193 4.233333,1.79243 0.388055,0.18051 2.451805,1.06114 4.586111,1.95697 2.134305,0.89582 4.005685,1.74783 4.158579,1.89335 0.495194,0.47121 -19.18931,0.73156 -55.3132232,0.73156 H -31.680306 l -0.230823,6.08541 c -0.126964,3.34698 -0.231351,12.78702 -0.231916,20.97787 0,13.91243 -0.04237,14.91455 -0.628509,15.22823 -0.345052,0.18468 -3.321614,0.84393 -6.614583,1.46501 -3.292933,0.62108 -6.262828,1.26932 -6.59973,1.44052 -0.336939,0.17121 -0.886919,0.31129 -1.222199,0.31129 -0.692044,0 -32.265547,6.18802 -39.793013,7.79894 -2.716389,0.58132 -5.494514,1.13912 -6.173611,1.23955 -1.611771,0.23838 -11.60159,2.18993 -12.55515,2.45272 l -0.73713,0.20312 z"
         id="path2149"
         inkscape:export-filename="C:\Users\user\git\btw-intersection-observer\blender\btm-education-cleaned-fromsvg-as-a-test-some-smoothing.png"
         inkscape:export-xdpi="300.03"
         inkscape:export-ydpi="300.03"
         sodipodi:nodetypes="cssssssssssssssccccscsssssscsscssssscsscccsssssssssssssssssssssssscssssssssssscssssssscccsscccccssssssssscsccssssssscssssssssssssssssscssssssssssscsscsssssssssscccssssccscsssssssscssssccsssccsssssssssssssssssssssssssssssssssssssssssssssssssssssssssssssscssssssscccssssssssssssssssssssssssssscscssssssscs" />
      <path
         style="fill:#550d99;stroke-width:0.352778"
         d="m -147.85524,171.81497 c 0,-0.17297 1.21682,-0.42791 2.62352,-0.7477 1.99436,-0.45335 16.54869,-3.17892 22.14299,-4.30605 0.46226,-0.0931 0.8754,-0.0668 1.26339,0.24478 0.56822,0.45629 1.08677,1.37027 1.64975,2.84438 0.52799,1.38249 0.55188,1.70374 0.14601,1.96081 -0.64498,0.40855 -27.82566,0.41222 -27.82566,0.004 z M 578.86693,70.289647 c -1.75599,-0.803264 -36.91897,-15.73845 -59.14107,-25.119697 -4.87867,-2.059559 -8.88612,-3.903402 -8.90549,-4.097429 -0.0194,-0.194028 0.65035,-0.527668 1.48826,-0.741423 4.52261,-1.153724 48.96467,-9.723646 49.45309,-9.536215 0.31983,0.122725 3.22104,5.617655 6.49697,12.305249 7.46125,15.231745 13.43046,27.640898 13.43046,27.920019 0,0.390335 -0.85682,0.168554 -2.82222,-0.730504 z M 109.31974,-156.32313 c -2.71113,-0.47981 -15.104144,-0.99548 -29.280553,-1.21837 l -13.581943,-0.21353 -8.995833,-3.8341 c -4.947708,-2.10875 -19.949582,-8.46162 -33.337498,-14.11749 -13.387916,-5.65586 -26.3260397,-11.13882 -28.7513867,-12.18435 -2.4253471,-1.04553 -10.7597213,-4.58711 -18.5208323,-7.87019 -7.76111,-3.28307 -20.381734,-8.62825 -28.045831,-11.87817 -7.664097,-3.24993 -17.253337,-7.30987 -21.309399,-9.02211 -4.056062,-1.71223 -7.540625,-3.27911 -7.743472,-3.48196 -0.25654,-0.25656 29.01844,-0.36881 96.186477,-0.36881 h 96.555271 v 32.27917 32.27917 l -0.79375,-0.0442 c -0.43656,-0.0243 -1.50812,-0.17058 -2.38125,-0.3251 z"
         id="path2147"
         sodipodi:nodetypes="sssssssssssssssssscsssssssscccsss" />
    </g>
  </g>
  <g
     inkscape:label="Layer 1"
     inkscape:groupmode="layer"
     id="layer1"
     transform="translate(618.25461,227.70946)"
     style="display:inline">
    <g
       id="g1192"
       transform="translate(226.45221,259.13603)" />
    <path
       style="display:inline;fill:#2f2f2f;stroke-width:0.352778"
       d="m 130.83918,349.91529 c -6.34393,-0.56822 -13.08724,-2.78074 -17.58159,-5.76859 -3.25208,-2.16196 -7.64456,-6.51743 -9.64431,-9.56306 -7.827964,-11.92206 -10.677808,-26.20998 -11.18796,-56.09167 -0.746055,-43.69908 3.598721,-64.29178 16.18869,-76.72917 3.64896,-3.60472 7.48273,-5.98787 12.25479,-7.61788 5.4773,-1.87085 9.1404,-2.35783 16.32038,-2.16962 5.41747,0.14199 6.67202,0.29228 10.2428,1.22707 11.59983,3.03671 20.09157,10.9106 24.64071,22.84793 4.60157,12.07491 6.58848,26.13417 6.97989,49.38889 0.50997,30.29994 -1.98184,50.62943 -7.67126,62.5867 -6.52847,13.72069 -16.60818,20.65849 -31.84585,21.91939 -4.31652,0.35715 -4.37628,0.35694 -8.69629,-0.03 z m 8.74251,-27.35383 c 4.92269,-2.45307 6.92559,-8.47552 7.49257,-22.5293 0.43674,-10.82527 0.42327,-51.99303 -0.0198,-59.99297 -0.65889,-11.90195 -2.119,-16.96335 -5.83784,-20.23681 -3.11086,-2.7383 -7.5335,-2.82117 -10.96289,-0.20543 -2.41166,1.83946 -4.3253,6.36948 -5.30729,12.56355 -0.57827,3.64758 -0.63384,7.01382 -0.63384,38.39397 0,35.9664 0.0844,38.31184 1.56404,43.48596 1.26824,4.43484 3.59156,7.66812 6.37346,8.86976 2.00625,0.86659 5.19716,0.71479 7.3314,-0.34873 z m 135.01443,25.06472 c -15.86145,-2.54444 -27.90814,-11.96996 -32.23786,-25.22347 -2.05616,-6.29397 -1.93202,-2.26977 -2.05912,-66.7531 l -0.11667,-59.17848 h 14.82559 14.82556 v 56.57268 c 0,33.53499 0.13405,57.27951 0.32918,58.30839 1.0439,5.50457 3.9461,9.34212 8.24173,10.8979 2.90354,1.05163 7.26391,1.17662 10.42127,0.29881 3.96945,-1.1036 7.01749,-4.26974 8.6215,-8.95555 l 0.78493,-2.29306 0.0944,-57.41458 0.0944,-57.41459 h 14.66031 14.66032 l -0.23068,58.47292 c -0.13815,35.00674 -0.36844,59.32237 -0.57394,60.58959 -2.78179,17.15597 -13.12566,27.70836 -30.99784,31.62272 -4.43992,0.97239 -16.54838,1.23895 -21.34305,0.46982 z M -58.249692,271.43641 v -74.25972 h 15.682629 15.682629 l 0.199814,1.14653 c 0.109925,0.63059 3.36109,21.94278 7.224817,47.36042 8.031021,52.83203 7.582394,50.05835 7.902751,48.85972 0.190077,-0.71117 15.0434666,-96.7007 15.0434666,-97.21787 0,-0.0818 6.9849994,-0.1488 15.5222214,-0.1488 h 15.522221 l 0.0035,71.34931 c 0,39.24212 0.104069,72.65899 0.22867,74.25972 l 0.226554,2.91042 -11.429364,3e-5 H 12.130881 l 0.09169,-34.28174 c 0.05041,-18.85495 0.02011,-34.21028 -0.06717,-34.12289 -0.08738,0.0874 -1.362393,5.23508 -2.8334054,11.43935 -1.4710126,6.2043 -5.100249,21.5199 -8.064958,34.03469 l -5.3903735,22.75417 -7.6546771,0.0951 c -4.210085,0.0523 -7.654713,0.004 -7.654713,-0.10784 0,-0.11162 -1.990513,-8.88563 -4.423375,-19.49785 -2.432826,-10.61223 -5.782062,-25.24806 -7.442728,-32.5241 -4.855915,-21.27596 -4.27796,-21.94522 -4.417766,5.11527 -0.172825,33.45279 -0.140934,43.52181 0.143934,45.42014 l 0.251424,1.6757 H -46.78974 -58.248279 v -74.25973 z m -517.607318,12.74452 0.094,-61.27277 -14.9107,0.0328 -14.9107,0.0328 v -12.98685 -12.98684 l 45.42014,-0.0895 45.42014,-0.0895 1.4e-4,13.14228 1.5e-4,13.14232 -14.9932,-0.0992 -14.9932,-0.0992 v 61.04157 61.04156 h -4.52858 c -2.49072,0 -9.51541,0.10421 -15.61042,0.23153 l -11.08183,0.23156 0.094,-61.27274 z m 117.71232,-12.92066 0.0214,-74.08312 15.08125,-2.1e-4 15.08125,-2.5e-4 v 29.45695 29.45694 h 14.99705 14.99705 l -0.0922,-29.45698 -0.0922,-29.45698 15.25763,3e-5 15.25764,4e-5 v 74.08333 74.08334 h -15.1676 -15.16759 l -0.09,-32.36736 -0.09,-32.36736 h -14.92641 -14.92642 l 0.032,32.36736 0.032,32.36736 h -15.11308 -15.11308 l 0.0214,-74.08309 z m 149.90401,72.44634 c 0.12338,-0.90018 0.22434,-34.63456 0.22434,-74.96528 V 195.4128 h 41.80416 41.80417 v 12.74114 12.74116 l -0.79375,-0.28804 c -0.43657,-0.15843 -12.66032,-0.34233 -27.16389,-0.40866 l -26.37014,-0.12061 v 17.47721 17.47725 h 24.51806 24.51805 v 12.87639 12.87639 h -24.51805 -24.51806 v 19.85309 19.8531 l 27.34028,-0.13952 27.34027,-0.13952 v 12.56559 12.56559 h -42.20488 -42.2049 z m 695.3729,-72.56547 v -74.31723 l 15.34583,-3e-5 h 15.34584 l -0.0941,61.08767 -0.0941,61.08767 27.69894,-0.24687 27.69891,-0.24688 v 13.24254 13.24257 l -11.55347,2.1e-4 c -6.35441,1.4e-4 -25.68222,0.10538 -42.95069,0.2339 l -31.39722,0.23364 z m 149.57777,-0.21569 v -74.10154 h 18.23818 c 19.18357,0 22.73801,0.21202 29.31661,1.74876 13.27492,3.10095 23.74784,10.48808 30.67103,21.63409 8.05991,12.97602 11.83823,31.89972 11.14428,55.81576 -0.58691,20.22758 -4.51675,35.36485 -12.21867,47.06518 -1.07456,1.63238 -3.51144,4.58523 -5.41531,6.56192 -7.27738,7.55561 -14.78202,11.51124 -26.90777,14.18272 l -4.25891,0.93832 -20.28472,0.12816 -20.28472,0.12817 z m 37.21805,47.91481 c 6.06249,-1.68007 11.77198,-5.84059 14.35604,-10.46131 4.36383,-7.80327 5.74231,-16.49698 5.74852,-36.25465 0.006,-20.3484 -1.06828,-29.38495 -4.29825,-36.14205 -1.16423,-2.43555 -1.97291,-3.52856 -4.30671,-5.82084 -4.46669,-4.38728 -10.33663,-6.98718 -16.43849,-7.28094 l -2.64583,-0.12739 -0.0894,48.6459 -0.0895,48.64594 2.5589,-0.23572 c 1.40738,-0.12965 3.7495,-0.56568 5.20471,-0.96894 z M -593.5944,38.651611 c -0.30608,-4.898721 -0.0894,-31.8225066 0.25897,-32.1707124 0.13997,-0.1399258 4.10872,-1.0202792 8.81944,-1.9563398 4.71072,-0.936057 33.88557,-6.7174958 64.833,-12.8476342 30.94743,-6.1301416 62.1418,-12.3190036 69.32083,-13.7530316 7.17902,-1.434027 20.83152,-4.12194 30.33888,-5.973145 9.50736,-1.851201 17.68299,-3.447634 18.16806,-3.547629 0.67707,-0.139573 0.24634,0.41262 -1.85424,2.37713 -1.5049,1.407414 -2.73521,2.731749 -2.73403,2.942964 10e-4,0.211215 1.39122,1.480047 3.08896,2.819626 4.06489,3.207343 11.81357,10.767289 15.33798,14.964403 2.81285,3.349738 8.37697,11.4334045 10.49978,15.2542878 l 1.12511,2.0251173 -0.82553,0.3089064 c -0.45405,0.1698942 -17.09741,2.7918195 -36.98525,5.8264955 -19.88785,3.034672 -36.73837,5.607064 -37.44561,5.716422 -0.84721,0.131 -1.41663,0.03995 -1.66912,-0.266894 -0.21078,-0.256149 -1.31028,-1.656348 -2.44332,-3.111557 -4.56646,-5.864828 -9.43567,-9.3279559 -16.43606,-11.6898102 -8.16153,-2.753614 -11.66214,-3.1344412 -30.99408,-3.3718113 L -519.33022,2.0002292 V 16.509292 c 0,7.979985 -0.0624,14.509062 -0.13868,14.509062 -0.27833,0 -51.8356,7.825041 -61.77381,9.375641 -5.62681,0.877919 -10.6523,1.733497 -11.16776,1.901289 l -0.9372,0.305071 z m 241.6398,-44.58673 c -0.3532,-5.557714 0.0985,-42.144577 0.52353,-42.407273 0.71681,-0.443015 76.22924,-15.295139 76.48196,-15.042815 0.14865,0.14841 0.32415,4.321351 0.39001,9.273194 l 0.11975,9.003359 3.93718,-0.238714 c 13.72627,-0.832221 24.16584,-2.780373 32.07096,-5.984826 9.83258,-3.985789 14.96451,-9.239779 18.63002,-19.073065 0.79558,-2.134306 1.67488,-4.058906 1.954,-4.276887 0.27911,-0.217982 2.1318,-0.731023 4.11709,-1.140094 9.36575,-1.929828 80.47248,-15.909308 80.54279,-15.834593 0.0439,0.0467 -0.0606,2.148657 -0.2322,4.671018 -1.30757,19.214391 -5.41831,35.194248 -12.613,49.031036 -1.58482,3.047887 -2.67211,4.729705 -3.24891,5.025266 -0.47678,0.244331 -27.85437,4.573224 -60.83909,9.619764 -32.98472,5.046539 -60.46608,9.257284 -61.06968,9.357208 -1.05364,0.174424 -1.1382,0.09331 -2.11638,-2.029961 l -1.01893,-2.211645 -0.10404,2.356637 c -0.0991,2.243963 -0.14967,2.366066 -1.05861,2.553871 -2.17481,0.449361 -74.59111,11.4936589 -75.36271,11.4936589 -0.82262,0 -0.84587,-0.087313 -1.10374,-4.1451389 z m 245.10769,-62.226858 c 0.0789,-25.027855 0.15678,-28.658683 0.61944,-28.894656 0.29105,-0.148438 16.880419,-3.482747 36.865279,-7.409587 19.984859,-3.92684 36.533381,-7.21266 36.77454,-7.30183 0.346005,-0.12795 0.457553,4.73491 0.529167,23.069774 l 0.09073,23.231906 46.566664,0.176389 c 25.611665,0.09701 45.931663,0.289126 45.155552,0.426917 -5.521642,0.980313 -164.679542,25.325861 -165.566672,25.325861 h -1.12497 z m 281.21213,-15.031477 c 0.10005,-0.339548 1.25039,-5.181423 2.55633,-10.759722 1.30595,-5.578299 2.53267,-10.142364 2.72606,-10.142364 0.5013,0 35.85308,14.956546 35.85502,15.169447 0,0.17212 -39.93327,6.393381 -40.85459,6.364545 -0.27435,-0.0086 -0.39024,-0.267437 -0.28282,-0.631906 z m 40.43507,-9.30202 c -4.92785,-1.95369 -34.50043,-14.622446 -34.82883,-14.920496 -0.3386,-0.30729 0.21099,-3.1612 2.52052,-13.08836 6.83073,-29.36126 8.82372,-37.63838 9.17875,-38.12046 0.25083,-0.3406 9.79848,-2.38575 28.774,-6.16355 47.2223,-9.40137 67.53122,-13.35744 67.70091,-13.18777 0.28413,0.28414 14.24936,59.84133 16.80298,71.65924 0.14051,0.65029 -0.0197,0.80967 -0.98118,0.97557 -6.76515,1.16741 -86.35509,13.234524 -87.17971,13.217845 -0.60801,-0.01231 -1.50237,-0.179705 -1.98744,-0.372019 z m 162.27777,-63.660816 v -39.57918 l 0.79374,-0.213 c 1.50979,-0.40513 75.72562,-15.03874 76.27048,-15.03874 0.49086,0 0.54688,4.22516 0.54688,41.25339 v 41.25338 l -1.67569,0.24218 c -0.92164,0.1332 -18.38413,2.81145 -38.80556,5.95167 l -37.12985,5.70949 z m 105.0213,22.56613 c 8.30372,-11.78608 47.64284,-68.94139 49.43548,-71.82421 1.36307,-2.19193 3.41376,-5.73159 4.55708,-7.86589 l 2.07882,-3.88056 2.26821,-0.22335 c 2.89941,-0.28549 70.93638,-0.27894 78.58178,0.008 l 5.75797,0.21578 -13.70122,19.22639 c -7.53569,10.57452 -18.74725,26.32093 -24.91461,34.99202 l -11.21343,15.76563 -1.8336,0.37076 c -1.00852,0.20393 -21.51863,3.39215 -45.57807,7.08493 -24.05945,3.69279 -44.28737,6.81258 -44.95098,6.93287 l -1.2065,0.21871 z"
       id="path2145"
       transform="translate(3.1127337,9.3382307)" />
  </g>
</svg>
