<?xml version="1.0" encoding="UTF-8" standalone="no"?>
<!-- Created with Inkscape (http://www.inkscape.org/) -->

<svg
   width="187.1244mm"
   height="87.297722mm"
   viewBox="0 0 187.1244 87.297722"
   version="1.1"
   id="svg5"
   inkscape:version="1.1.1 (3bf5ae0d25, 2021-09-20)"
   sodipodi:docname="drawing.svg"
   xmlns:inkscape="http://www.inkscape.org/namespaces/inkscape"
   xmlns:sodipodi="http://sodipodi.sourceforge.net/DTD/sodipodi-0.dtd"
   xmlns="http://www.w3.org/2000/svg"
   xmlns:svg="http://www.w3.org/2000/svg">
  <sodipodi:namedview
     id="namedview7"
     pagecolor="#ffffff"
     bordercolor="#666666"
     borderopacity="1.0"
     inkscape:pageshadow="2"
     inkscape:pageopacity="0.0"
     inkscape:pagecheckerboard="0"
     inkscape:document-units="mm"
     showgrid="false"
     fit-margin-top="0"
     fit-margin-left="0"
     fit-margin-right="0"
     fit-margin-bottom="0"
     inkscape:zoom="1.65"
     inkscape:cx="210"
     inkscape:cy="244.84848"
     inkscape:window-width="3840"
     inkscape:window-height="2066"
     inkscape:window-x="-11"
     inkscape:window-y="-11"
     inkscape:window-maximized="1"
     inkscape:current-layer="layer1" />
  <defs
     id="defs2" />
  <g
     inkscape:label="Layer 1"
     inkscape:groupmode="layer"
     id="layer1"
     transform="translate(-71.18116,-59.041613)">
    <path
       style="fill:#000000;stroke-width:0.0282222"
       d="m 183.36766,146.31274 -0.3755,-0.0227 -0.34416,-0.0583 c -1.2218,-0.20688 -2.10017,-0.63783 -2.89466,-1.42019 l -0.29273,-0.28825 -0.20317,-0.26811 c -1.11577,-1.4724 -1.59397,-3.28453 -1.82465,-6.91445 l -0.0296,-0.46566 -0.0156,-1.778 -0.0156,-1.778 0.0327,-0.80434 c 0.13246,-3.262 0.51076,-5.26948 1.27751,-6.77934 l 0.16788,-0.33056 0.2146,-0.31855 c 0.93992,-1.39518 2.1104,-2.11091 3.84599,-2.35175 l 0.35277,-0.049 0.59267,-8.5e-4 0.59267,-8.5e-4 0.26811,0.0345 c 0.40618,0.0523 0.82649,0.13987 1.17189,0.24424 l 0.31112,0.094 0.29566,0.13339 c 2.41356,1.08889 3.49332,3.52709 3.81077,8.60507 l 0.03,0.47977 0.0162,1.66511 0.0162,1.66512 -0.033,0.88357 c -0.0706,1.89168 -0.20344,3.21957 -0.43957,4.39398 l -0.0965,0.47978 -0.11303,0.39063 c -0.28321,0.97879 -0.6673,1.78728 -1.16859,2.45981 l -0.16829,0.22578 -0.29948,0.3059 -0.29948,0.30589 -0.21167,0.16205 c -0.69718,0.53375 -1.45591,0.85078 -2.43496,1.01745 l -0.33241,0.0566 -0.48603,0.0282 c -0.26733,0.0155 -0.49874,0.0265 -0.51427,0.0244 -0.0155,-0.002 -0.1972,-0.0139 -0.40373,-0.0264 z m 0.89683,-4.02132 c 0.60168,-0.17868 1.0007,-0.83065 1.18274,-1.93252 l 0.058,-0.3511 0.0286,-0.42535 c 0.0157,-0.23394 0.0432,-1.12929 0.061,-1.98966 l 0.0323,-1.56432 -0.017,-2.63878 -0.017,-2.63878 -0.0286,-0.67733 c -0.0349,-0.8264 -0.0709,-1.23142 -0.1453,-1.63374 l -0.0568,-0.30728 -0.098,-0.29949 -0.098,-0.29949 -0.11894,-0.21097 -0.11894,-0.21097 -0.14111,-0.14225 c -0.0776,-0.0782 -0.19364,-0.1762 -0.25785,-0.2177 l -0.11674,-0.0754 -0.16548,-0.0487 -0.16548,-0.0487 h -0.21167 -0.21167 l -0.16563,0.0487 c -0.18849,0.0555 -0.31923,0.13169 -0.49208,0.28686 l -0.12022,0.10792 -0.11214,0.17757 c -0.38418,0.6083 -0.52197,1.28501 -0.59663,2.93009 l -0.0359,0.79022 3.9e-4,3.61245 4e-4,3.61244 0.035,0.762 c 0.0506,1.10094 0.10951,1.56597 0.26464,2.08845 l 0.0838,0.28222 0.12807,0.24801 0.12806,0.248 0.15887,0.16315 c 0.18792,0.19297 0.34133,0.29527 0.52943,0.35303 l 0.13745,0.0422 0.25593,0.002 0.25593,0.002 0.15057,-0.0447 z m 21.15335,3.75349 c -1.60705,-0.1212 -2.73672,-0.50166 -3.76767,-1.26892 l -0.28962,-0.21554 -0.25413,-0.24433 -0.25413,-0.24432 -0.20186,-0.254 c -0.6985,-0.8789 -1.06653,-1.85435 -1.17206,-3.10653 l -0.0287,-0.34076 -0.001,-8.4928 -0.001,-8.4928 2.20922,-0.008 2.20921,-0.008 v 8.37569 8.37569 l 0.0488,0.2905 0.0488,0.29049 0.0867,0.25984 0.0867,0.25984 0.10885,0.18344 0.10885,0.18345 0.15877,0.15954 0.15877,0.15955 0.1683,0.10025 0.1683,0.10026 0.23292,0.0774 0.23291,0.0775 0.508,-3.4e-4 0.508,-3.4e-4 0.24607,-0.0755 0.24606,-0.0755 0.19138,-0.12297 c 0.23899,-0.15358 0.37294,-0.28793 0.54268,-0.54432 l 0.13298,-0.20088 0.0903,-0.27223 0.0903,-0.27223 0.0486,-0.28889 0.0486,-0.2889 v -8.37494 -8.37495 h 2.21159 2.21159 l -0.0218,0.0917 -0.0218,0.0917 -0.0184,8.62189 -0.0184,8.62189 -0.0347,0.22578 c -0.26498,1.72575 -0.91107,2.87994 -2.11275,3.77426 l -0.27863,0.20736 -0.30932,0.17356 c -0.74072,0.41563 -1.54804,0.67167 -2.52476,0.80074 l -0.40922,0.0541 -0.62089,0.0109 c -0.34149,0.006 -0.68439,0.006 -0.762,2.8e-4 z m -50.4807,-0.3995 c -0.005,-0.0118 -0.006,-5.00296 -0.002,-11.09155 l 0.007,-11.07017 h 2.34932 l 2.34933,1e-5 0.0789,0.52916 c 0.0434,0.29104 0.14849,0.98636 0.23356,1.54516 0.0851,0.5588 0.21158,1.39065 0.28112,1.84856 0.0695,0.4579 0.13898,0.90875 0.15431,1.00189 0.0153,0.0931 0.079,0.51223 0.14141,0.93133 0.0624,0.4191 0.1575,1.04775 0.21124,1.397 0.0537,0.34925 0.14246,0.93345 0.19716,1.29822 0.0547,0.36477 0.11228,0.73943 0.12797,0.83256 0.0157,0.0931 0.13012,0.84243 0.25429,1.66511 0.22173,1.46911 0.27496,1.81843 0.46227,3.03389 l 0.0935,0.60678 0.0178,-0.0706 c 0.01,-0.0388 0.1707,-1.06667 0.35764,-2.28414 0.37313,-2.43002 0.42735,-2.78203 0.50893,-3.30386 0.0653,-0.41736 0.5116,-3.31811 0.79037,-5.13645 0.10828,-0.70626 0.20963,-1.36031 0.22523,-1.45344 0.0587,-0.35057 0.36581,-2.36888 0.36581,-2.40428 v -0.0369 h 2.33538 2.33539 l -0.009,10.61861 -0.009,10.61862 0.0324,0.43744 c 0.0178,0.24059 0.0344,0.45014 0.037,0.46567 l 0.005,0.0282 -1.73194,0.007 -1.73194,0.007 0.0228,-0.0778 0.0228,-0.0778 0.006,-5.06589 0.006,-5.06589 -0.0214,0.0847 c -0.0118,0.0466 -0.11203,0.46566 -0.2228,0.93133 -0.11078,0.46567 -0.25924,1.08797 -0.32992,1.38289 -0.0707,0.29492 -0.14678,0.61877 -0.16913,0.71967 -0.0223,0.10089 -0.12846,0.55174 -0.23581,1.00189 -0.10735,0.45014 -0.39495,1.66299 -0.63911,2.69522 -0.24415,1.03223 -0.52833,2.23237 -0.63151,2.667 l -0.18758,0.79022 -1.1432,0.007 -1.1432,0.007 -0.0904,-0.38837 c -0.0497,-0.2136 -0.19891,-0.86461 -0.33151,-1.4467 -0.13261,-0.58208 -0.25336,-1.10913 -0.26835,-1.17122 -0.015,-0.0621 -0.0847,-0.36689 -0.15497,-0.67733 -0.0702,-0.31045 -0.14003,-0.61525 -0.15507,-0.67734 -0.049,-0.20228 -0.13679,-0.58399 -0.23684,-1.03011 -0.13052,-0.58194 -0.33948,-1.49554 -0.42604,-1.86266 -0.0384,-0.16299 -0.1085,-0.46779 -0.15572,-0.67734 -0.0472,-0.20955 -0.12302,-0.53975 -0.16846,-0.73378 -0.0455,-0.19402 -0.1536,-0.67027 -0.24033,-1.05833 -0.0867,-0.38806 -0.16857,-0.73096 -0.18185,-0.762 l -0.0241,-0.0564 -0.004,4.826 -0.004,4.826 0.0307,0.40699 c 0.0169,0.22384 0.0331,0.42069 0.0361,0.43744 l 0.005,0.0305 -1.7127,0.007 -1.7127,0.007 -0.009,-0.0214 z m -59.634793,-10.73878 0.0076,-10.7315 -0.02218,-0.34572 -0.02218,-0.34572 2.286451,-2e-5 2.286451,-2e-5 -0.0188,0.31752 -0.0188,0.31752 -0.0024,4.08517 -0.0024,4.08516 h 2.244521 2.24453 l -0.01,-4.32505 -0.01,-4.32506 -0.0224,-0.0776 -0.0224,-0.0776 h 2.31046 2.31045 v 11.07722 11.07722 l -2.286,1e-5 h -2.286 l 0.008,-4.84011 0.008,-4.84012 h -2.24602 -2.246015 l 0.0089,4.84012 0.0089,4.84011 H 97.553237 95.29546 l 0.0076,-10.73151 z m 22.352183,10.4564 0.0204,-0.27523 v -10.92906 -10.92905 h 6.24417 6.24417 v 1.90429 1.9043 l -0.0776,-0.0136 c -0.0427,-0.008 -0.17921,-0.0282 -0.30339,-0.0461 l -0.22578,-0.0325 -3.68163,-0.0113 -3.68163,-0.0113 -0.0649,0.0163 -0.0649,0.0163 v 2.58179 2.5818 h 3.66888 3.66889 v 1.93312 1.93311 l -3.66183,0.007 -3.66183,0.007 -0.007,2.94378 -0.007,2.94377 3.94419,-0.0144 c 2.1693,-0.008 4.00461,-0.0182 4.07846,-0.0228 l 0.13428,-0.008 2.8e-4,1.89089 2.8e-4,1.89089 -6.29321,0.007 -6.29321,0.007 0.0204,-0.27523 z m -39.941398,0.0917 0.01945,-0.14111 0.01157,-8.984 0.01157,-8.98399 -2.166609,0.0138 c -1.191635,0.008 -2.195176,0.0181 -2.230092,0.0234 l -0.06348,0.01 -4.06e-4,-1.98261 c -2.23e-4,-1.09044 0.0061,-1.98262 0.0141,-1.98262 0.008,0 3.068851,0 6.801945,0 h 6.787444 v 1.99296 1.99296 l -0.07761,-0.0207 -0.07761,-0.0207 -2.180591,-0.0132 -2.180592,-0.0132 0.0088,9.06878 c 0.0048,4.98782 0.01455,9.09091 0.02159,9.11798 l 0.01281,0.0492 -2.365859,0.007 -2.365859,0.007 0.01945,-0.14111 z m 143.629468,-0.0988 0.0208,-0.23989 v -10.61155 -10.61156 l -0.0218,-0.23251 -0.0218,-0.23251 2.34308,-0.007 c 1.2887,-0.004 2.34308,-0.006 2.34308,-0.005 0,0.001 -0.019,0.12835 -0.0422,0.28222 l -0.0422,0.27976 -2.8e-4,8.82791 -2.8e-4,8.82791 4.07106,-0.0111 4.07105,-0.0111 0.0776,-0.0218 0.0776,-0.0218 v 2.00694 2.00695 l -6.4484,0.007 -6.4484,0.007 0.0208,-0.23989 z m 22.31644,0.22578 c -0.005,-0.008 0.003,-0.12942 0.0172,-0.27034 l 0.0258,-0.25622 -0.009,-10.73633 -0.009,-10.73634 -0.023,-0.0776 -0.023,-0.0776 2.6209,2.9e-4 2.6209,2.8e-4 0.46567,0.0413 c 1.46541,0.12988 2.68833,0.51088 3.74889,1.16798 l 0.34811,0.21569 0.28689,0.22719 c 2.04056,1.61599 3.09177,4.2712 3.29556,8.32414 l 0.0326,0.64911 -0.0181,0.87489 -0.0181,0.87489 -0.041,0.51273 c -0.13269,1.66085 -0.39155,2.91592 -0.86052,4.17216 l -0.1475,0.39511 -0.21075,0.42924 -0.21074,0.42925 -0.21942,0.35031 -0.21942,0.35031 -0.25047,0.31927 -0.25048,0.31926 -0.29747,0.29822 c -1.20369,1.20671 -2.61605,1.84708 -4.71424,2.13747 l -0.35278,0.0488 -2.78965,0.0155 c -1.53431,0.008 -2.79353,0.009 -2.79826,0.001 z m 5.05169,-3.82934 0.28222,-0.0429 0.33335,-0.0958 0.33335,-0.0958 0.3025,-0.15081 c 0.46993,-0.23427 0.74017,-0.4402 1.06947,-0.81498 l 0.176,-0.20031 0.13616,-0.22848 c 0.46602,-0.78204 0.6906,-1.65686 0.83027,-3.23416 l 0.0362,-0.40922 v -1.79212 -1.79211 l -0.0368,-0.56444 c -0.12865,-1.97243 -0.34164,-2.79987 -0.9226,-3.58422 -0.62775,-0.84751 -1.82922,-1.42103 -2.98464,-1.42471 l -0.16228,-5.2e-4 v 7.25515 7.25514 l 0.16228,-0.0185 c 0.0892,-0.0102 0.28927,-0.0378 0.4445,-0.0614 z m -2.94783,-20.6605 c -0.33333,-0.91588 -0.67212,-1.6369 -1.43551,-3.05505 -0.16293,-0.30269 -0.42274,-0.78529 -0.57736,-1.07245 -0.15461,-0.28716 -0.37965,-0.70626 -0.50008,-0.93133 -0.12043,-0.22507 -0.29843,-0.55527 -0.39556,-0.73378 -0.0971,-0.17851 -0.23376,-0.43251 -0.30364,-0.56444 -0.0699,-0.13194 -0.1698,-0.31141 -0.22204,-0.39881 -0.0522,-0.0874 -0.095,-0.16623 -0.095,-0.17518 0,-0.009 -0.12199,-0.24224 -0.27109,-0.51842 -0.1491,-0.27618 -0.37339,-0.69265 -0.49843,-0.92548 -0.12505,-0.23284 -0.33499,-0.62019 -0.46654,-0.86078 -0.13155,-0.2406 -0.29619,-0.5454 -0.36586,-0.67733 -0.0697,-0.13194 -0.17127,-0.32244 -0.22576,-0.42334 -0.0545,-0.10089 -0.19738,-0.36759 -0.31752,-0.59266 -0.12014,-0.22508 -0.29784,-0.55528 -0.39489,-0.73378 -0.097,-0.17851 -0.22755,-0.41981 -0.28999,-0.53622 -0.0624,-0.11642 -0.16243,-0.29853 -0.22218,-0.4047 -0.0598,-0.10616 -0.10863,-0.19778 -0.10863,-0.2036 0,-0.006 -0.0717,-0.14121 -0.15921,-0.30087 -0.0876,-0.15965 -0.25698,-0.47443 -0.3765,-0.6995 -0.11951,-0.22507 -0.26549,-0.49812 -0.32439,-0.60678 -0.0589,-0.10865 -0.22772,-0.4198 -0.37514,-0.69144 -0.36209,-0.66721 -0.51166,-0.94478 -0.88963,-1.651 -0.11631,-0.21731 -0.29056,-0.54116 -0.38724,-0.71967 -0.24046,-0.444 -0.31694,-0.59547 -0.30562,-0.6053 0.005,-0.005 0.46047,-0.11806 1.0115,-0.25216 0.55104,-0.1341 1.26224,-0.30736 1.58045,-0.38502 l 0.57855,-0.1412 0.60678,0.22814 c 0.33373,0.12548 0.80998,0.30265 1.05834,0.39371 0.72139,0.26451 1.64574,0.60987 1.99448,0.74522 0.10354,0.0402 0.20214,0.0731 0.2191,0.0731 0.017,0 0.0529,0.0125 0.0799,0.0277 0.0518,0.0293 0.59729,0.23566 1.34722,0.50959 0.24836,0.0907 0.51506,0.18917 0.59267,0.21878 0.24743,0.0944 2.69568,1.00995 4.0806,1.52599 0.45927,0.17113 0.88738,0.33208 0.95134,0.35768 l 0.1163,0.0465 0.0677,0.11735 c 0.0372,0.0645 0.14746,0.26974 0.24494,0.456 0.0975,0.18627 0.18655,0.35137 0.19792,0.36689 0.0184,0.0251 0.40507,0.74211 0.77621,1.43934 0.0744,0.1397 0.24307,0.45085 0.3749,0.69144 0.13183,0.2406 0.29012,0.5327 0.35175,0.64911 0.0616,0.11642 0.14052,0.26247 0.17531,0.32456 0.0348,0.0621 0.11755,0.21449 0.18393,0.33866 0.12756,0.2386 0.17997,0.33595 0.50903,0.94545 0.23845,0.44167 0.48236,0.8926 0.62971,1.16417 0.10276,0.18939 0.18247,0.33732 0.41438,0.76905 0.0667,0.12418 0.15259,0.28293 0.19084,0.35278 0.0383,0.0698 0.15479,0.28575 0.25895,0.47978 0.10416,0.19402 0.25499,0.47028 0.33518,0.6139 0.0802,0.14362 0.14579,0.2663 0.14579,0.27264 0,0.006 0.0488,0.0984 0.10843,0.20454 0.0596,0.10617 0.17199,0.31368 0.24967,0.46114 0.0777,0.14746 0.34438,0.64276 0.59266,1.10067 0.24828,0.4579 0.50251,0.9278 0.56496,1.04422 0.0625,0.11641 0.28203,0.52281 0.48797,0.90311 0.20593,0.38029 0.4796,0.88829 0.60814,1.12889 0.12855,0.24059 0.26322,0.49054 0.29927,0.55543 l 0.0656,0.11798 -0.0158,0.0158 c -0.0222,0.0222 -0.94347,0.067 -4.73887,0.23021 -1.26506,0.0544 -2.86526,0.12363 -3.556,0.15381 -0.69074,0.0302 -1.57974,0.0681 -1.97556,0.0843 -0.39582,0.0162 -0.96097,0.0417 -1.25589,0.0566 -0.29492,0.0149 -0.61352,0.0273 -0.70801,0.0274 l -0.17179,2.8e-4 -0.12069,-0.33161 z M 148.153,120.0053 c 0.0112,-0.12806 0.0366,-0.43421 0.0567,-0.68034 l 0.0364,-0.44751 0.0386,-0.0238 c 0.0212,-0.0131 0.0896,-0.032 0.15202,-0.0419 0.0624,-0.01 0.51987,-0.0984 1.01658,-0.19671 0.49671,-0.0983 1.29046,-0.25504 1.76389,-0.34838 1.25126,-0.24672 4.92316,-0.9727 5.72911,-1.13273 0.67881,-0.13478 2.97778,-0.5887 5.37633,-1.06152 0.66746,-0.13158 1.46121,-0.28882 1.76389,-0.34942 0.30268,-0.0606 1.33138,-0.26428 2.286,-0.45261 0.95462,-0.18832 2.20557,-0.43571 2.77989,-0.54974 0.57433,-0.11404 1.76178,-0.34858 2.63878,-0.52121 0.87701,-0.17264 1.93746,-0.38232 2.35656,-0.46597 0.4191,-0.0837 1.1176,-0.22196 1.55222,-0.30735 2.23987,-0.4401 4.54947,-0.89499 4.59317,-0.90466 l 0.0494,-0.0109 v 3.86381 3.8638 h -16.10486 -16.10484 z m -37.20905,-0.10314 c 0,-0.014 0.0185,-0.19502 0.0411,-0.40217 0.0226,-0.20715 0.0544,-0.60347 0.0706,-0.88071 l 0.0294,-0.50408 V 106.53676 94.95831 l 0.17639,-0.01861 c 0.097,-0.01024 0.23989,-0.03007 0.3175,-0.04408 0.0776,-0.01401 0.27446,-0.04585 0.43745,-0.07075 0.16298,-0.0249 0.41063,-0.06322 0.55033,-0.08516 0.1397,-0.02193 0.38735,-0.06007 0.55033,-0.08475 0.16299,-0.02468 0.44874,-0.06901 0.635,-0.0985 0.55467,-0.08781 0.8822,-0.138432 1.27,-0.196271 0.20179,-0.0301 0.50024,-0.07537 0.66322,-0.100615 0.16299,-0.02524 0.46144,-0.07053 0.66323,-0.100635 0.20178,-0.0301 0.43038,-0.0667 0.508,-0.08132 0.0776,-0.01462 0.21096,-0.03434 0.29633,-0.04382 0.0854,-0.0095 0.21872,-0.02838 0.29633,-0.042 0.0776,-0.01362 0.27446,-0.04513 0.43745,-0.07004 0.16298,-0.0249 0.41063,-0.06322 0.55033,-0.08516 0.1397,-0.02193 0.38735,-0.06007 0.55033,-0.08475 0.16299,-0.02468 0.44874,-0.06901 0.635,-0.0985 0.55467,-0.08781 0.88221,-0.138433 1.27,-0.196271 0.20179,-0.0301 0.50024,-0.07537 0.66323,-0.100615 0.69426,-0.107527 1.02441,-0.155222 1.07448,-0.155222 h 0.0534 l 0.0128,13.102169 0.0127,13.10217 0.018,0.26105 0.018,0.26106 h -5.90045 -5.90045 z m -35.549988,-0.19319 c 0.0099,-0.0892 0.05885,-0.45438 0.108705,-0.81139 l 0.09065,-0.64911 0.0086,-8.86884 0.0086,-8.86883 h 0.02078 c 0.01143,0 0.554175,-0.0829 1.206109,-0.18412 0.651933,-0.10121 1.267883,-0.19603 1.368777,-0.21072 0.100895,-0.0147 0.551745,-0.0837 1.001889,-0.153279 1.100668,-0.170214 1.819174,-0.280859 2.596444,-0.399827 0.357011,-0.05465 1.011061,-0.155384 1.453445,-0.223865 0.442383,-0.06848 1.178983,-0.181906 1.636889,-0.252055 0.457905,-0.07015 1.035755,-0.159416 1.284111,-0.198371 0.248355,-0.03896 0.47378,-0.07086 0.500944,-0.0709 h 0.04939 l -2.8e-5,5.792607 -2.8e-5,5.79262 0.55742,-0.007 c 0.306581,-0.004 1.33212,-0.0116 2.278975,-0.0176 l 1.721556,-0.011 0.352778,-0.0455 c 1.866985,-0.241 3.214669,-0.83007 4.234615,-1.85096 l 0.269393,-0.26964 0.177013,-0.23367 c 0.858534,-1.13333 1.298542,-2.49367 1.417354,-4.38193 l 0.03277,-0.52085 -0.01853,-0.67089 -0.01853,-0.6709 -0.04111,-0.46762 C 97.556727,99.706321 97.2103,98.400569 96.697919,97.505132 l -0.113044,-0.197556 0.06048,-0.02052 c 0.03327,-0.01129 0.270032,-0.0519 0.526149,-0.09026 0.661516,-0.09906 10.362016,-1.589997 10.583336,-1.626618 0.10089,-0.0167 0.21782,-0.03673 0.25985,-0.04451 l 0.0764,-0.01416 0.17447,0.347701 c 0.92262,1.838689 1.47997,3.95261 1.71035,6.487031 l 0.0499,0.54933 2.8e-4,1.41111 2.9e-4,1.41112 -0.0511,0.508 c -0.38616,3.83968 -1.69597,6.73724 -4.10513,9.08133 -2.00341,1.94929 -4.36786,3.25494 -7.16409,3.956 -0.653611,0.16386 -1.222979,0.27609 -1.867452,0.36807 -0.821658,0.11726 -1.51609,0.1767 -2.475225,0.21186 l -0.733777,0.0269 -9.126854,6.5e-4 -9.126853,6.5e-4 0.01805,-0.16228 z m 57.690578,0.13447 c -0.01,-0.0153 -0.0474,-0.20897 -0.0842,-0.43039 -0.15811,-0.94942 -0.4714,-1.9532 -1.00209,-3.2107 -0.0295,-0.0699 -0.14256,-0.35559 -0.25128,-0.635 -0.10872,-0.2794 -0.28182,-0.7233 -0.38467,-0.98646 -0.16871,-0.43168 -0.22863,-0.58548 -0.45127,-1.15842 -0.0562,-0.14472 -0.19336,-0.49534 -0.50774,-1.29823 -0.0365,-0.0931 -0.12559,-0.32173 -0.19804,-0.508 -0.0725,-0.18626 -0.20163,-0.51646 -0.28706,-0.73377 -0.0854,-0.21731 -0.21728,-0.55387 -0.29299,-0.74789 -0.0757,-0.19403 -0.25988,-0.66393 -0.40924,-1.04423 -0.14937,-0.38029 -0.30109,-0.76764 -0.33715,-0.86077 -0.0562,-0.1452 -0.1744,-0.44749 -0.50752,-1.29823 -0.0365,-0.0931 -0.12542,-0.32173 -0.19767,-0.508 -0.0722,-0.18626 -0.19915,-0.51011 -0.282,-0.71966 -0.0828,-0.20955 -0.27307,-0.6985 -0.42272,-1.08656 -0.14966,-0.38805 -0.32171,-0.8262 -0.38234,-0.97367 -0.0606,-0.14746 -0.19787,-0.49671 -0.30498,-0.77611 -0.28527,-0.74411 -0.48318,-1.25285 -0.54347,-1.397 -0.0292,-0.0699 -0.12417,-0.31115 -0.21102,-0.53622 -0.0869,-0.22507 -0.18776,-0.48542 -0.22426,-0.57855 -0.0365,-0.0931 -0.17073,-0.436037 -0.29831,-0.762004 -0.12757,-0.325966 -0.33698,-0.859366 -0.46534,-1.185333 -0.12838,-0.325967 -0.28411,-0.726017 -0.34609,-0.889 -0.062,-0.162984 -0.2355,-0.607484 -0.38561,-0.987778 -0.15012,-0.380294 -0.32212,-0.818445 -0.38223,-0.973667 -0.0601,-0.155222 -0.20402,-0.523522 -0.31979,-0.818444 -0.21518,-0.548152 -0.3296,-0.84223 -0.50895,-1.308027 -0.11917,-0.309499 -0.12135,-0.301422 0.0881,-0.32569 0.0897,-0.01039 0.32182,-0.0444 0.51585,-0.07558 0.47136,-0.07574 0.8,-0.127237 1.15711,-0.181319 0.16298,-0.02468 0.44873,-0.06916 0.635,-0.09884 0.18627,-0.02968 0.59902,-0.09314 0.91722,-0.141021 0.31821,-0.04789 0.69921,-0.105915 0.84667,-0.128959 0.14746,-0.02304 0.35066,-0.05439 0.45155,-0.06968 0.1009,-0.01528 0.3803,-0.05892 0.62089,-0.09697 0.2406,-0.03805 0.5327,-0.08237 0.64911,-0.09849 0.11642,-0.01611 0.33232,-0.04842 0.47978,-0.0718 0.14746,-0.02337 0.35066,-0.05516 0.45156,-0.07064 0.10089,-0.01548 0.30409,-0.04725 0.45155,-0.07061 0.14746,-0.02336 0.44591,-0.06832 0.66322,-0.09992 0.21731,-0.03159 0.41416,-0.06301 0.43745,-0.0698 0.0233,-0.0068 0.17568,-0.03164 0.33866,-0.05521 0.2979,-0.04307 0.94495,-0.141049 1.49578,-0.2265 0.16299,-0.02528 0.46144,-0.0706 0.66323,-0.100708 0.20178,-0.0301 0.43038,-0.0667 0.50799,-0.08132 0.0776,-0.01462 0.21097,-0.03434 0.29634,-0.04382 0.0854,-0.0095 0.21872,-0.02838 0.29633,-0.042 0.0776,-0.01362 0.27446,-0.04513 0.43745,-0.07004 0.16298,-0.0249 0.41063,-0.06322 0.55033,-0.08516 0.1397,-0.02193 0.38735,-0.06018 0.55033,-0.08498 0.16299,-0.02481 0.41699,-0.06465 0.56445,-0.08852 0.14746,-0.02388 0.38241,-0.06035 0.52211,-0.08106 0.33259,-0.0493 1.14273,-0.172624 1.48166,-0.225552 0.14747,-0.02303 0.44592,-0.06804 0.66323,-0.100028 0.21731,-0.03198 0.4144,-0.06377 0.43799,-0.07063 0.0236,-0.0069 0.18233,-0.03133 0.35277,-0.05438 0.17045,-0.02305 0.41468,-0.05904 0.54274,-0.07999 l 0.23283,-0.03809 v 0.02479 c 0,0.134261 -0.80502,1.266483 -1.38014,1.941093 l -0.3248,0.381 -0.48103,0.480071 c -0.4087,0.407882 -0.6355,0.616876 -0.96081,0.88536 -0.30058,0.248082 -0.69132,0.551843 -0.91408,0.710607 -0.14919,0.10633 -0.28395,0.203491 -0.29947,0.215914 -0.0634,0.05072 -0.61122,0.404701 -0.87489,0.565292 -0.30194,0.183893 -0.4501,0.268638 -0.83933,0.480091 l -0.24667,0.133999 -2.8e-4,0.04536 c -2.9e-4,0.02495 0.0569,0.161905 0.12672,0.304359 0.0699,0.142452 0.127,0.263881 0.127,0.269844 0,0.01057 0.28468,0.63574 0.45682,1.003219 0.0473,0.100894 0.18093,0.392994 0.29704,0.649111 0.11611,0.256116 0.27339,0.597377 0.34951,0.758354 0.0761,0.160979 0.1384,0.298289 0.1384,0.305135 0,0.0069 0.0307,0.07834 0.0682,0.158869 0.32651,0.700542 0.49074,1.056822 0.58134,1.261192 0.10043,0.22654 0.38832,0.8548 0.56256,1.22767 0.0435,0.0931 0.14548,0.31539 0.22657,0.49389 0.0811,0.17851 0.18578,0.40711 0.23266,0.508 0.0469,0.1009 0.14568,0.3168 0.21958,0.47978 0.1767,0.3897 0.42088,0.92473 0.53452,1.17122 0.0501,0.10866 0.11439,0.24836 0.14289,0.31045 0.0285,0.0621 0.15443,0.33327 0.27984,0.60262 0.12541,0.26935 0.22802,0.49485 0.22802,0.50111 0,0.01 0.29379,0.6566 0.40885,0.90004 0.10508,0.22235 0.31454,0.67705 0.42903,0.93134 0.15496,0.34418 0.36038,0.79071 0.62656,1.36202 0.11037,0.23688 0.20067,0.43587 0.20067,0.44221 0,0.006 0.0584,0.13637 0.12978,0.28898 0.28525,0.60984 0.32178,0.68923 0.32178,0.69925 0,0.006 0.0825,0.18374 0.18344,0.39558 0.1009,0.21184 0.18345,0.39109 0.18345,0.39834 0,0.007 0.0746,0.17483 0.16582,0.3724 0.49956,1.08215 0.65948,1.43032 0.77429,1.68566 0.0698,0.15522 0.21202,0.46637 0.31607,0.69145 0.10405,0.22507 0.31352,0.68227 0.46547,1.016 0.15196,0.33372 0.4251,0.93062 0.60696,1.32644 0.18187,0.39582 0.46088,1.00542 0.62002,1.35467 0.15914,0.34925 0.34632,0.75565 0.41596,0.90311 0.26166,0.55406 0.41719,0.89424 0.41719,0.91248 v 0.0189 h -6.40478 -6.40478 l -0.0172,-0.0278 z m 47.87064,0.007 c -0.006,-0.0116 0.0925,-0.45932 0.21961,-0.99483 0.12707,-0.53552 0.3293,-1.39277 0.44938,-1.905 0.12009,-0.51224 0.25552,-1.08758 0.30096,-1.27854 0.0454,-0.19096 0.15915,-0.67356 0.25268,-1.07244 0.0935,-0.39889 0.22612,-0.9602 0.29462,-1.24736 0.0685,-0.28716 0.1638,-0.69356 0.21176,-0.90311 0.11949,-0.52204 0.17055,-0.73041 0.19563,-0.7982 l 0.0213,-0.0576 0.25169,-0.0502 c 0.13843,-0.0276 0.87399,-0.17201 1.63458,-0.32094 0.76059,-0.14893 1.46544,-0.28912 1.56634,-0.31155 0.10089,-0.0224 0.71049,-0.14342 1.35466,-0.26888 0.64418,-0.12547 1.35538,-0.26506 1.58045,-0.3102 0.4909,-0.0985 3.53254,-0.70033 4.54378,-0.8991 0.39581,-0.0778 1.94521,-0.38393 3.44311,-0.68028 1.49789,-0.29635 3.23144,-0.63926 3.85233,-0.76201 0.62089,-0.12276 2.12584,-0.4203 3.34433,-0.66122 1.2185,-0.24091 2.5774,-0.50866 3.01978,-0.59499 0.44238,-0.0863 0.88688,-0.17529 0.98778,-0.19767 0.10089,-0.0224 0.48189,-0.0985 0.84667,-0.16912 0.6027,-0.11669 3.33678,-0.65607 5.08891,-1.00394 0.38521,-0.0765 0.72444,-0.13905 0.75386,-0.13905 h 0.0535 l 0.0282,0.10583 c 0.0314,0.11769 0.4758,1.99059 0.72159,3.04095 0.35639,1.52304 0.46674,1.9923 0.54753,2.32833 0.0467,0.19403 0.17995,0.75918 0.29621,1.25589 0.40179,1.71654 0.52555,2.24282 0.60867,2.58828 0.0459,0.19075 0.17994,0.75958 0.29788,1.26405 0.11794,0.50447 0.3104,1.32362 0.42769,1.82033 0.37223,1.57635 0.51749,2.20005 0.51749,2.22191 v 0.0212 l -5.94078,3.9e-4 -5.94077,4e-4 v -0.037 c 0,-0.1495 -0.17731,-1.40663 -0.25554,-1.81179 -0.12446,-0.64462 -0.37563,-1.92901 -0.40841,-2.08845 -0.0223,-0.10865 -0.23849,-1.20085 -0.48032,-2.42711 -0.72591,-3.68076 -0.74556,-3.77789 -0.76918,-3.80151 l -0.0228,-0.0228 -5.02081,0.007 -5.0208,0.007 -0.0211,0.0988 c -0.0116,0.0543 -0.14292,0.68298 -0.29182,1.397 -0.14891,0.71403 -0.36498,1.74908 -0.48016,2.30011 -0.95769,4.58158 -1.02582,4.93616 -1.13067,5.88434 -0.0258,0.23283 -0.0513,0.43921 -0.0568,0.45861 l -0.01,0.0353 h -5.92589 -5.92589 l -0.0114,-0.0212 z m 39.53173,-0.26811 c 0.01,-0.14358 0.0299,-0.54046 0.0447,-0.88195 l 0.0269,-0.62089 2.9e-4,-6.90353 2.8e-4,-6.90353 0.16228,-0.0329 c 0.0892,-0.0181 0.42262,-0.0831 0.74083,-0.14444 0.3182,-0.0614 0.64205,-0.12513 0.71967,-0.14171 0.0776,-0.0166 0.36971,-0.0742 0.64911,-0.12799 0.2794,-0.0538 0.59055,-0.11628 0.69144,-0.13878 0.18133,-0.0404 1.47324,-0.29467 2.07433,-0.40821 0.17075,-0.0323 0.393,-0.0769 0.49389,-0.0992 0.1009,-0.0223 0.2914,-0.0604 0.42334,-0.0846 0.13194,-0.0242 0.39229,-0.0756 0.57855,-0.1142 0.18627,-0.0386 0.63712,-0.12765 1.00189,-0.19788 0.36477,-0.0702 0.71402,-0.13958 0.77611,-0.15412 0.0621,-0.0145 0.32244,-0.0659 0.57856,-0.11413 0.25611,-0.0482 0.61171,-0.11799 0.79022,-0.15502 0.17851,-0.037 0.43251,-0.0881 0.56444,-0.11343 0.13194,-0.0254 0.36054,-0.0708 0.508,-0.10101 0.14747,-0.0302 0.36337,-0.0728 0.47978,-0.0947 0.11642,-0.0219 0.25502,-0.0489 0.30801,-0.06 l 0.0964,-0.0202 -0.0187,2.39628 c -0.0103,1.31796 -0.0267,4.99979 -0.0365,8.18185 l -0.0178,5.78555 0.047,0.53622 c 0.0258,0.29493 0.0591,0.61243 0.0739,0.70556 0.0149,0.0931 0.0271,0.19156 0.0272,0.21872 l 2.8e-4,0.0494 h -5.90108 -5.90108 l 0.0178,-0.26105 z m -72.80428,-15.63312 c 0.004,-8.027797 0.0122,-14.600779 0.0181,-14.606624 0.006,-0.0058 0.12949,-0.02892 0.27476,-0.05127 0.14528,-0.02235 0.47369,-0.07311 0.72981,-0.112804 0.25611,-0.03969 0.57996,-0.08936 0.71966,-0.110369 0.85124,-0.128027 1.37583,-0.208641 1.74978,-0.26889 0.32575,-0.05248 0.93601,-0.146327 1.49578,-0.230011 0.31045,-0.04641 0.6343,-0.09531 0.71967,-0.108656 0.0854,-0.01335 0.28857,-0.04518 0.45155,-0.07075 0.52081,-0.08168 1.19164,-0.18544 1.45345,-0.224813 0.82165,-0.123559 1.32577,-0.200953 1.74978,-0.26863 0.46837,-0.07476 1.09561,-0.170942 1.28411,-0.196907 0.11641,-0.01604 0.33231,-0.04828 0.47977,-0.07166 0.14746,-0.02337 0.35067,-0.05516 0.45156,-0.07064 0.10089,-0.01548 0.30409,-0.04725 0.45156,-0.07061 0.14746,-0.02336 0.44591,-0.06832 0.66322,-0.09991 0.21731,-0.03159 0.41416,-0.06301 0.43744,-0.0698 0.0233,-0.0068 0.17569,-0.03164 0.33867,-0.05521 0.29789,-0.04307 0.94495,-0.141049 1.49578,-0.226499 0.16298,-0.02528 0.46143,-0.0706 0.66322,-0.100708 0.20179,-0.0301 0.43039,-0.0667 0.508,-0.08132 0.0776,-0.01462 0.21096,-0.03434 0.29633,-0.04383 0.0854,-0.0095 0.21872,-0.02838 0.29634,-0.042 0.0776,-0.01362 0.27446,-0.04513 0.43744,-0.07004 0.16298,-0.0249 0.41063,-0.06322 0.55033,-0.08516 0.1397,-0.02193 0.38735,-0.06018 0.55034,-0.08499 0.16298,-0.02481 0.41698,-0.06465 0.56444,-0.08852 0.14746,-0.02388 0.38241,-0.06035 0.52211,-0.08106 0.3326,-0.0493 1.14274,-0.172624 1.48167,-0.225552 0.14746,-0.02303 0.44591,-0.06804 0.66323,-0.100026 0.21731,-0.03199 0.4144,-0.06377 0.43798,-0.07063 0.0236,-0.0069 0.18233,-0.03146 0.35277,-0.05467 0.17045,-0.02321 0.43055,-0.0614 0.57802,-0.08487 0.14745,-0.02347 0.35066,-0.05534 0.45156,-0.07082 0.10089,-0.01548 0.30409,-0.04725 0.45155,-0.07061 0.14747,-0.02336 0.44592,-0.06832 0.66323,-0.09992 0.2173,-0.03159 0.41415,-0.06301 0.43743,-0.06981 0.0233,-0.0068 0.18108,-0.03171 0.35064,-0.05535 l 0.3083,-0.04299 h 2.21054 2.21053 v 4.938889 4.938889 h -9.36978 -9.36978 v 7.564971 7.56497 l 9.19339,-0.0113 9.19339,-0.0113 0.55034,-0.0317 c 0.30268,-0.0175 0.85165,-0.0521 1.21992,-0.0769 l 0.66959,-0.0452 0.0258,0.0159 0.0258,0.0159 0.005,0.95729 0.005,0.95729 -0.0235,0.0145 c -0.0129,0.008 -0.44217,0.0978 -0.95391,0.19954 -1.69612,0.33731 -3.44943,0.68475 -5.2061,1.03166 -2.62628,0.51865 -4.25143,0.84009 -4.78366,0.94619 -0.26388,0.0526 -1.00683,0.19936 -1.651,0.32614 -0.64418,0.12678 -1.79988,0.35512 -2.56823,0.50743 -0.76835,0.15231 -1.98755,0.39318 -2.70933,0.53527 -1.23039,0.24222 -2.70562,0.534 -4.99534,0.98803 -0.53551,0.10618 -1.75471,0.34717 -2.70933,0.53552 -0.95462,0.18835 -2.27542,0.44928 -2.93511,0.57983 -0.6597,0.13056 -1.6249,0.32097 -2.14489,0.42315 -0.51999,0.10217 -1.0305,0.20423 -1.13446,0.22678 -0.10396,0.0226 -0.21191,0.041 -0.23989,0.041 h -0.0509 z m 35.21274,6.55971 c 0.0178,-0.0463 0.0926,-0.35572 0.25395,-1.05128 0.0769,-0.33134 0.52427,-2.23202 0.60784,-2.58233 0.0751,-0.31489 0.21361,-0.90392 0.29527,-1.25589 0.0769,-0.33134 0.52427,-2.23202 0.60784,-2.58233 0.0878,-0.36819 0.21386,-0.90461 0.31163,-1.32645 0.0504,-0.21731 0.16006,-0.68086 0.24378,-1.03011 0.0837,-0.34925 0.18979,-0.800098 0.23571,-1.001887 0.0459,-0.201789 0.12837,-0.551039 0.18321,-0.776111 0.0548,-0.225072 0.11858,-0.498122 0.14164,-0.606778 0.0231,-0.108656 0.0733,-0.324556 0.11167,-0.479778 0.0384,-0.155222 0.17209,-0.720372 0.29718,-1.255889 0.12509,-0.535516 0.27848,-1.183217 0.34087,-1.439333 0.0624,-0.256117 0.13207,-0.554567 0.15485,-0.663222 0.0228,-0.108656 0.0783,-0.349956 0.12343,-0.536223 0.0451,-0.186266 0.12058,-0.503766 0.1677,-0.705555 0.0471,-0.201789 0.13671,-0.582789 0.19908,-0.846667 0.0624,-0.263878 0.1339,-0.568678 0.15895,-0.677333 0.0503,-0.21813 0.21952,-0.934879 0.34983,-1.481667 0.0462,-0.194028 0.18634,-0.790928 0.31133,-1.326445 0.12499,-0.535516 0.27838,-1.183216 0.34087,-1.439333 0.0625,-0.256117 0.13204,-0.554567 0.15456,-0.663222 0.0225,-0.108656 0.0724,-0.324556 0.11094,-0.479778 0.063,-0.254096 0.13089,-0.541421 0.41336,-1.749778 0.0948,-0.405568 0.22355,-0.951232 0.3063,-1.298222 0.18335,-0.768824 0.30944,-1.309419 0.32254,-1.382889 0.008,-0.04657 0.12374,-0.541867 0.25653,-1.100667 0.13279,-0.5588 0.25935,-1.09855 0.28126,-1.199445 0.0721,-0.331969 0.23589,-0.99284 0.24945,-1.0064 0.0148,-0.01483 0.22077,0.06962 1.72645,0.707981 0.57433,0.243495 1.31728,0.55804 1.651,0.698988 0.33373,0.140948 0.65758,0.278797 0.71967,0.306329 0.1263,0.05601 2.43158,1.037266 2.89278,1.23133 0.16298,0.06858 0.36618,0.155384 0.45155,0.192894 0.35912,0.157787 1.35265,0.578212 1.36641,0.578212 0.008,0 0.082,0.03047 0.16388,0.06771 0.0819,0.03724 0.26324,0.11508 0.40294,0.172976 0.1397,0.0579 0.30739,0.12908 0.37265,0.158186 0.0653,0.02911 0.22401,0.09627 0.35278,0.149248 0.26363,0.108471 0.67094,0.282763 0.79857,0.341711 0.0466,0.02151 0.19261,0.08255 0.32455,0.13565 0.21966,0.0884 0.5527,0.229472 2.14489,0.908553 0.30268,0.129096 0.88688,0.376337 1.29822,0.549424 0.76441,0.321654 0.90295,0.380273 1.00189,0.42393 0.0311,0.0137 0.3168,0.135007 0.635,0.269576 0.31821,0.13457 0.70556,0.298843 0.86078,0.365051 0.15522,0.06621 0.57432,0.243245 0.93133,0.393414 0.35701,0.150169 0.77611,0.328061 0.93134,0.395315 0.43666,0.189193 0.8306,0.354144 0.84578,0.354144 0.008,0 0.10611,0.04276 0.21899,0.09503 0.11287,0.05227 0.29413,0.129967 0.40278,0.172673 0.10866,0.04271 0.2323,0.09543 0.27476,0.117153 l 0.0772,0.03951 0.014,0.06299 c 0.008,0.03464 0.0786,0.336036 0.15747,0.669764 0.24173,1.022587 0.3012,1.275902 0.35114,1.495778 0.0264,0.116417 0.0908,0.389467 0.14298,0.606778 0.13446,0.55981 0.54747,2.313198 0.71795,3.048 0.0792,0.341489 0.18087,0.773289 0.22586,0.959556 0.11669,0.483088 0.61697,2.613437 0.7191,3.062111 0.0265,0.116417 0.0985,0.421217 0.15996,0.677333 0.0615,0.256117 0.14314,0.599017 0.18148,0.762 0.0383,0.162984 0.12736,0.537634 0.19781,0.832556 0.0705,0.294922 0.1586,0.669568 0.19587,0.832558 0.16513,0.72206 0.27007,1.17236 0.36504,1.56633 0.0561,0.23283 0.12715,0.53128 0.15782,0.66322 0.0307,0.13194 0.12553,0.53084 0.21079,0.88645 0.18747,0.78183 0.71755,0.55835 -3.11914,1.31502 -0.877,0.17296 -2.0327,0.40145 -2.56822,0.50775 -0.53552,0.10629 -1.69122,0.33486 -2.56822,0.50792 -0.87701,0.17307 -1.90571,0.37631 -2.286,0.45166 -0.3803,0.0753 -1.11055,0.21968 -1.62278,0.32075 -2.02399,0.39935 -5.00667,0.98929 -5.72911,1.13316 -0.4191,0.0835 -1.47955,0.29287 -2.35656,0.46535 -0.877,0.17248 -1.93745,0.38177 -2.35655,0.46509 -0.4191,0.0833 -1.54305,0.30565 -2.49767,0.49407 -0.95462,0.18842 -2.04682,0.40455 -2.42711,0.48028 -2.45725,0.48935 -4.57016,0.90295 -4.6128,0.90295 h -0.0499 z m 20.25058,-11.486444 c 0,-0.02795 -0.23942,-1.113019 -0.31199,-1.413956 -0.0313,-0.129622 -0.0813,-0.358222 -0.11125,-0.508 -0.0299,-0.149775 -0.14375,-0.672372 -0.25294,-1.161322 -0.1092,-0.48895 -0.22491,-1.00965 -0.25713,-1.157111 -0.0322,-0.147461 -0.0763,-0.344311 -0.0979,-0.437444 -0.0216,-0.09313 -0.0723,-0.321734 -0.11256,-0.508 -0.0403,-0.186267 -0.0911,-0.414867 -0.11289,-0.508 -0.0218,-0.09313 -0.0975,-0.436034 -0.16827,-0.762 -0.0707,-0.325967 -0.1533,-0.700617 -0.1835,-0.832556 -0.0302,-0.131939 -0.13895,-0.620889 -0.24163,-1.086556 -0.10268,-0.465666 -0.23711,-1.075266 -0.29874,-1.354666 -0.0616,-0.279401 -0.14816,-0.673101 -0.19231,-0.874889 -0.0442,-0.201789 -0.13806,-0.627239 -0.2087,-0.945445 -0.0706,-0.318206 -0.18056,-0.813506 -0.24427,-1.100667 -0.0637,-0.287161 -0.15315,-0.697256 -0.19875,-0.911322 -0.0456,-0.214067 -0.10756,-0.493467 -0.13771,-0.620889 -0.0301,-0.127423 -0.077,-0.330103 -0.10416,-0.4504 -0.0549,-0.243476 -0.0799,-0.26951 -0.10846,-0.112889 -0.0178,0.09771 -0.20649,0.942363 -0.31369,1.404056 -0.0844,0.363523 -0.35241,1.547932 -0.43745,1.933222 -0.0463,0.20955 -0.12252,0.5461 -0.16947,0.747889 -0.047,0.201789 -0.10474,0.455789 -0.12842,0.564445 -0.0237,0.108655 -0.0686,0.305505 -0.0998,0.437444 -0.081,0.342482 -0.15709,0.680161 -0.22018,0.977423 -0.0301,0.141766 -0.0802,0.364016 -0.11142,0.493889 -0.0312,0.129873 -0.12053,0.521883 -0.19853,0.871133 -0.14458,0.647406 -0.18474,0.82441 -0.33936,1.495778 -0.0483,0.20955 -0.1071,0.4699 -0.13075,0.578555 -0.0237,0.108656 -0.0733,0.324556 -0.11025,0.479778 -0.037,0.155222 -0.11188,0.485422 -0.16642,0.733778 -0.0546,0.248355 -0.13162,0.591255 -0.17128,0.762 -0.0397,0.170744 -0.10287,0.450144 -0.14047,0.620889 -0.0376,0.170744 -0.13934,0.621594 -0.22608,1.001889 -0.0867,0.380294 -0.18274,0.805744 -0.21332,0.945444 -0.0306,0.1397 -0.0742,0.33655 -0.097,0.437445 -0.0228,0.100894 -0.0418,0.205669 -0.0424,0.232833 l -9.9e-4,0.04939 h 3.33022 3.33022 v -0.02117 z m 47.06055,5.681384 c -0.26172,-0.11316 -1.07662,-0.45973 -1.70744,-0.72615 -0.14746,-0.0623 -0.30621,-0.13026 -0.35278,-0.15107 -0.0466,-0.0208 -0.40687,-0.17298 -0.80067,-0.33817 -0.3938,-0.16519 -0.8129,-0.34257 -0.93133,-0.39417 -0.11843,-0.0516 -0.47568,-0.20359 -0.79389,-0.33775 -0.3182,-0.13416 -0.6484,-0.27394 -0.73378,-0.31062 -0.0854,-0.0367 -0.40287,-0.17124 -0.70555,-0.29903 -0.30268,-0.12779 -0.72178,-0.3054 -0.93133,-0.39469 -0.20955,-0.0893 -0.62865,-0.266 -0.93134,-0.39266 -0.30268,-0.12667 -0.63288,-0.26677 -0.73378,-0.31133 -0.10089,-0.0446 -0.51999,-0.22347 -0.93133,-0.39757 -0.41134,-0.1741 -0.79234,-0.33574 -0.84667,-0.35921 l -0.0988,-0.0427 0.23989,-0.0508 c 0.13193,-0.028 0.98918,-0.19832 1.905,-0.378595 0.91581,-0.180275 1.84926,-0.364727 2.07433,-0.409891 0.61555,-0.123526 3.56404,-0.705098 3.61131,-0.712312 l 0.0412,-0.0063 0.0352,0.07056 c 0.0759,0.152208 0.79769,1.636778 1.1663,2.398888 0.21397,0.44238 0.51898,1.07103 0.6778,1.397 0.73318,1.50476 0.83302,1.70991 0.95463,1.96144 0.0713,0.14747 0.13433,0.27764 0.14006,0.28928 l 0.0104,0.0212 -0.0376,-0.002 c -0.0207,-9e-4 -0.16462,-0.0566 -0.31985,-0.12368 z m -30.24011,-6.520995 v -6.081889 h 0.0164 c 0.009,0 0.10111,0.03669 0.20461,0.08154 0.1035,0.04485 0.52473,0.223822 0.93606,0.39773 0.41134,0.173908 0.81774,0.345922 0.90312,0.382253 0.17251,0.07342 0.44055,0.186837 1.397,0.591114 0.35701,0.150905 0.73166,0.310609 0.83255,0.354898 0.1009,0.04429 0.38665,0.165213 0.635,0.26872 0.24836,0.103505 0.50495,0.212147 0.57021,0.241422 0.0653,0.02928 0.22401,0.09631 0.35278,0.148965 0.12877,0.05265 0.29127,0.120901 0.36112,0.151661 0.0699,0.03076 0.2794,0.120207 0.46567,0.198772 0.18627,0.07856 0.76412,0.322255 1.28411,0.541531 0.51999,0.219278 0.98354,0.41582 1.03011,0.436761 0.26869,0.120836 2.15344,0.917747 2.17053,0.917747 0.007,0 0.093,0.03624 0.19111,0.08053 0.0981,0.04429 0.35299,0.154328 0.56642,0.244526 l 0.38805,0.163997 v 0.0282 c 0,0.01551 -0.14605,0.248183 -0.32455,0.517048 l -0.32456,0.488843 v 1.206923 c 0,0.663813 -0.008,1.481263 -0.0185,1.816563 l -0.0184,0.60963 -0.68002,0.13464 c -0.37401,0.074 -1.24517,0.24661 -1.93591,0.38347 -0.69074,0.13686 -2.03694,0.40246 -2.99155,0.59023 -0.95462,0.18777 -1.81822,0.35941 -1.91911,0.38143 -0.1009,0.022 -0.67875,0.13691 -1.28412,0.25534 -0.60536,0.11842 -1.47755,0.29046 -1.9382,0.3823 -0.46064,0.0919 -0.84481,0.16699 -0.85372,0.16699 h -0.0162 v -6.081885 z m 16.14505,2.377725 c -0.12237,-0.25224 -0.35847,-0.738014 -0.52467,-1.079503 -0.52065,-1.069797 -0.50077,-0.986869 -0.20655,-0.861348 1.45899,0.622456 2.05724,0.87546 2.0701,0.87546 0.007,0 0.0793,0.03089 0.16125,0.06866 0.0819,0.03776 0.35213,0.153531 0.60049,0.257265 0.79353,0.331446 1.04089,0.436696 1.18533,0.504336 l 0.14111,0.0661 -0.11289,0.0284 c -0.15782,0.0396 -3.01171,0.5994 -3.05573,0.59935 h -0.0359 l -0.22249,-0.45861 z m -161.087463,-2.764259 0.0072,-2.714865 1.326444,-0.262811 c 0.729544,-0.144546 2.291644,-0.453913 3.471333,-0.687482 1.179689,-0.23357 2.881489,-0.570925 3.781778,-0.749679 0.900288,-0.178751 2.011538,-0.399381 2.469444,-0.490287 0.457905,-0.09091 1.835855,-0.363754 3.062111,-0.606327 1.226256,-0.24257 2.540705,-0.503146 2.921,-0.579055 0.380294,-0.07591 1.694744,-0.336338 2.921,-0.578736 1.226255,-0.242398 2.477205,-0.490406 2.779889,-0.551132 2.285504,-0.458532 5.980434,-1.184151 6.026064,-1.183412 l 0.0558,9.04e-4 -0.22833,0.217819 c -0.33786,0.322312 -0.49135,0.463081 -0.59636,0.546958 l -0.0941,0.07514 0.0925,0.06499 c 0.38547,0.270843 1.12347,0.89824 1.57416,1.33825 1.17055,1.142792 1.93815,2.131916 2.71464,3.498066 l 0.19238,0.338475 -0.009,0.02801 -0.009,0.02801 -0.11722,0.02001 c -0.0645,0.01101 -0.29207,0.04596 -0.50578,0.07768 -0.21371,0.03172 -0.88387,0.134501 -1.48923,0.228402 -0.60537,0.0939 -1.30387,0.201318 -1.55222,0.238701 -0.5529,0.08322 -2.88548,0.442084 -3.48545,0.536225 -0.24059,0.03775 -0.900995,0.139593 -1.467556,0.226311 -0.566561,0.08672 -1.442609,0.221621 -1.946774,0.29978 l -0.916664,0.142107 -0.06392,-0.07987 c -0.03515,-0.04393 -0.06398,-0.09025 -0.06406,-0.102923 -1.97e-4,-0.03045 -0.104612,-0.169898 -0.385888,-0.515318 l -0.23212,-0.284767 -0.255607,-0.243242 C 94.136478,95.25009 92.996301,94.79444 91.230801,94.5658 L 90.863912,94.51828 88.500301,94.50687 86.13669,94.49546 v 2.157389 2.157389 l -0.119944,0.01941 c -0.215931,0.03495 -2.282284,0.35497 -2.744611,0.425069 -0.622472,0.09438 -1.050472,0.160282 -2.004895,0.308697 -0.450759,0.0701 -0.907959,0.140172 -1.016,0.155725 -0.108041,0.01556 -0.691738,0.105218 -1.297105,0.199254 -0.605367,0.09403 -1.303867,0.201777 -1.552222,0.239437 -0.248356,0.0377 -0.616655,0.0939 -0.818444,0.12505 -1.221756,0.18845 -1.48559,0.2279 -1.523926,0.2279 h -0.04276 z m 164.316973,1.483727 c -0.56498,-0.239266 -0.91371,-0.388135 -0.98778,-0.421663 -0.12518,-0.05667 -0.53146,-0.229176 -0.79856,-0.339076 -0.12877,-0.05298 -0.28752,-0.120283 -0.35278,-0.149558 -0.0653,-0.02928 -0.27741,-0.119617 -0.47144,-0.200753 -0.19403,-0.08114 -0.45438,-0.191999 -0.57855,-0.24636 -0.12418,-0.05436 -0.27023,-0.114989 -0.32456,-0.134728 -0.0543,-0.01974 -0.23611,-0.09624 -0.40396,-0.170005 l -0.30518,-0.134114 -0.19217,-0.398357 c -0.29479,-0.61109 -0.57014,-1.179142 -0.93485,-1.928622 -0.18295,-0.375977 -0.34104,-0.710052 -0.3513,-0.742386 l -0.0187,-0.05879 -0.0251,0.0086 c -0.0138,0.0047 -0.30397,0.429616 -0.64485,0.94418 -0.34088,0.514562 -0.63313,0.943816 -0.64943,0.953892 l -0.0297,0.01832 -0.36027,-0.15259 c -0.19815,-0.08392 -0.39203,-0.162306 -0.43083,-0.174182 -0.0388,-0.01187 -0.0833,-0.03141 -0.0988,-0.04341 -0.0155,-0.012 -0.11077,-0.0559 -0.21167,-0.09756 -0.10089,-0.04165 -0.41839,-0.175305 -0.70555,-0.297002 -0.28716,-0.1217 -0.82691,-0.35039 -1.19945,-0.508203 -0.37253,-0.157813 -0.71543,-0.304095 -0.76199,-0.325069 -0.0466,-0.02097 -0.16722,-0.07145 -0.26812,-0.11217 -0.10089,-0.04072 -0.25046,-0.105012 -0.33238,-0.142872 -0.0819,-0.03786 -0.15462,-0.06884 -0.16157,-0.06884 -0.0113,0 -0.64025,-0.266497 -0.93127,-0.394584 -0.0621,-0.02733 -0.22401,-0.09578 -0.35983,-0.152106 -0.13582,-0.05633 -0.35807,-0.148511 -0.49389,-0.204843 -0.13582,-0.05633 -0.29774,-0.124708 -0.35983,-0.151951 -0.0621,-0.02724 -0.44944,-0.191084 -0.86078,-0.364089 -0.41134,-0.173008 -0.78599,-0.332825 -0.83256,-0.355152 -0.0466,-0.02233 -0.38946,-0.169096 -0.762,-0.326155 -0.37253,-0.157063 -0.92791,-0.392416 -1.23417,-0.523009 -0.30626,-0.130595 -0.5634,-0.237445 -0.57143,-0.237445 -0.008,0 -0.094,-0.03716 -0.19104,-0.08258 -0.0971,-0.04542 -0.30347,-0.134936 -0.45869,-0.198924 -0.15522,-0.06399 -0.38065,-0.156995 -0.50094,-0.206683 l -0.21873,-0.09034 v -6.935084 -6.935086 l 0.0635,-0.01364 c 0.0616,-0.01322 0.27957,-0.04755 0.89606,-0.141099 0.16298,-0.02473 0.37253,-0.05711 0.46567,-0.07196 0.0931,-0.01485 0.29633,-0.0465 0.45155,-0.07035 0.15522,-0.02385 0.35842,-0.05543 0.45156,-0.07018 0.0931,-0.01475 0.30903,-0.04716 0.47977,-0.07202 0.17075,-0.02485 0.3676,-0.05635 0.43745,-0.07 0.0699,-0.01365 0.1905,-0.0325 0.26811,-0.04189 0.12853,-0.01555 0.3921,-0.05518 0.84667,-0.127296 0.24216,-0.03842 0.85586,-0.132886 1.397,-0.215035 0.66778,-0.101376 1.1757,-0.179271 1.35466,-0.207752 0.0854,-0.01359 0.24413,-0.03829 0.35278,-0.0549 0.10866,-0.01661 0.31821,-0.04927 0.46567,-0.07258 0.14746,-0.02331 0.39511,-0.06131 0.55033,-0.08444 0.15522,-0.02313 0.36477,-0.05527 0.46567,-0.07141 0.10089,-0.01615 0.34854,-0.0542 0.55033,-0.08457 0.20179,-0.03037 0.44309,-0.06702 0.53622,-0.08145 0.0931,-0.01443 0.30904,-0.04676 0.47978,-0.07184 0.17074,-0.02508 0.41204,-0.06333 0.53622,-0.08499 0.12418,-0.02166 0.29239,-0.04783 0.3738,-0.05815 l 0.14801,-0.01877 0.007,2.549684 0.007,2.549683 0.14112,-0.202264 c 0.0776,-0.111245 0.28716,-0.414557 0.46566,-0.674026 0.17851,-0.25947 0.38171,-0.552115 0.45156,-0.650323 0.0699,-0.09821 0.19685,-0.28103 0.28222,-0.406271 0.0854,-0.12524 0.26371,-0.382926 0.39629,-0.572635 0.13259,-0.18971 0.35402,-0.510026 0.49207,-0.711815 0.13805,-0.201789 0.31776,-0.462139 0.39936,-0.578555 0.0816,-0.116417 0.24436,-0.351367 0.36169,-0.522111 0.11733,-0.170745 0.30162,-0.437445 0.40953,-0.592667 0.10791,-0.155222 0.26982,-0.392546 0.3598,-0.527386 l 0.16359,-0.245163 0.0847,-0.02864 c 0.0466,-0.01575 0.17992,-0.04175 0.29633,-0.05778 0.32847,-0.04521 0.96583,-0.141303 1.04423,-0.157428 0.0388,-0.008 0.28645,-0.04691 0.55033,-0.08651 0.26388,-0.0396 0.63853,-0.09652 0.83255,-0.126497 0.19403,-0.02998 0.44168,-0.06816 0.55034,-0.08485 0.2783,-0.04275 0.46378,-0.07158 0.80433,-0.125025 0.16298,-0.02558 0.41698,-0.06451 0.56445,-0.08651 0.14746,-0.022 0.35066,-0.05322 0.45155,-0.06937 0.1009,-0.01615 0.34855,-0.0542 0.55033,-0.08457 0.20179,-0.03037 0.44309,-0.06702 0.53623,-0.08145 0.0931,-0.01443 0.30903,-0.04685 0.47977,-0.07205 0.17075,-0.0252 0.38231,-0.05835 0.47015,-0.07368 0.0878,-0.01533 0.37358,-0.06006 0.635,-0.09942 0.56545,-0.08512 1.1493,-0.174389 1.3643,-0.208606 0.0854,-0.01359 0.24412,-0.03829 0.35278,-0.05491 0.10865,-0.01661 0.3182,-0.04927 0.46566,-0.07258 0.14746,-0.02331 0.39511,-0.06131 0.55034,-0.08444 0.15522,-0.02313 0.36477,-0.05527 0.46566,-0.07142 0.1009,-0.01615 0.34855,-0.0542 0.55034,-0.08457 0.20179,-0.03037 0.44309,-0.06702 0.53622,-0.08145 0.0931,-0.01443 0.30903,-0.04685 0.47978,-0.07205 0.17074,-0.0252 0.38527,-0.05889 0.47673,-0.07488 0.31556,-0.05515 0.87796,-0.133073 0.88809,-0.123044 0.006,0.0055 -0.0614,0.109201 -0.14877,0.230377 -0.0874,0.121176 -0.17669,0.24572 -0.1984,0.276765 -0.1139,0.162877 -1.07207,1.506044 -1.11737,1.566333 -0.0292,0.03881 -0.12025,0.16693 -0.20243,0.284721 -0.0822,0.117791 -0.25101,0.356205 -0.37519,0.529809 -0.52048,0.727658 -0.96644,1.35487 -1.06644,1.499898 -0.092,0.133422 -0.33299,0.469956 -0.44942,0.627578 -0.02,0.02708 -0.14194,0.198526 -0.27098,0.381 -0.12904,0.182475 -0.47086,0.661972 -0.75959,1.06555 -0.28873,0.403578 -0.56345,0.790928 -0.61048,0.860778 -0.047,0.06985 -0.18249,0.26035 -0.30103,0.423333 -0.11853,0.162983 -0.35923,0.499533 -0.53488,0.747889 -0.17566,0.248356 -0.45403,0.639406 -0.61861,0.869 -0.16458,0.229594 -0.38178,0.535189 -0.48268,0.679101 -0.10089,0.143911 -0.26509,0.375162 -0.36487,0.513889 -0.53921,0.749629 -0.93335,1.314406 -0.93335,1.337416 0,0.01432 0.1319,0.296714 0.2931,0.627539 0.30463,0.625152 0.59506,1.2244 0.9207,1.899722 0.10479,0.217311 0.32692,0.674511 0.49362,1.016 0.16671,0.341489 0.38257,0.785989 0.4797,0.987778 0.25473,0.529201 0.56021,1.159719 0.87508,1.806222 0.15119,0.310445 0.34144,0.704145 0.42277,0.874889 0.13918,0.292176 0.29836,0.619614 0.98101,2.017889 0.15535,0.318206 0.33026,0.680156 0.38869,0.804334 0.0584,0.124177 0.2678,0.555977 0.46528,0.959555 0.19747,0.403578 0.42266,0.867128 0.50043,1.030111 0.0778,0.162984 0.24188,0.504385 0.36471,0.75867 0.12282,0.254288 0.2197,0.465049 0.21528,0.468362 -0.004,0.0033 -0.30649,0.0644 -0.67126,0.135752 -0.69679,0.136291 -4.23721,0.835773 -6.0392,1.193162 -0.5819,0.115409 -1.0899,0.20931 -1.12889,0.208672 l -0.0709,-0.0012 z M 111.08506,90.421353 c 0,-1.932516 0.004,-3.513666 0.009,-3.513666 0.008,0 1.16355,-0.22873 3.91383,-0.774776 1.45972,-0.289817 6.27293,-1.24347 6.98299,-1.383559 0.3559,-0.07022 0.65752,-0.127666 0.67027,-0.127666 h 0.0232 v 1.382889 1.382889 l 0.0917,-2.82e-4 c 0.19155,-5.64e-4 1.07004,-0.0581 1.51695,-0.09934 2.30413,-0.21263 3.89679,-0.679225 4.99533,-1.46346 l 0.23989,-0.171254 0.25697,-0.259915 0.25696,-0.259914 0.17603,-0.262865 0.17603,-0.262865 0.17745,-0.366889 0.17745,-0.366889 0.1007,-0.296333 c 0.0554,-0.162984 0.12071,-0.369194 0.14518,-0.458245 l 0.0445,-0.161911 0.0628,-0.01496 c 0.0345,-0.0082 0.35492,-0.07211 0.71193,-0.141966 0.56047,-0.109664 2.55882,-0.505319 6.33589,-1.254452 0.53551,-0.106212 1.94521,-0.38528 3.13266,-0.62015 1.18745,-0.23487 2.23167,-0.441643 2.3205,-0.459495 0.20461,-0.04112 0.18935,-0.08877 0.16033,0.500624 -0.15172,3.080426 -0.87199,5.764516 -2.15225,8.020352 l -0.16315,0.287464 -0.0757,0.01489 c -0.0416,0.0082 -0.45666,0.0729 -0.92232,0.143784 -0.46567,0.07089 -1.04352,0.159707 -1.28411,0.197375 -0.2406,0.03766 -0.901,0.139231 -1.46756,0.225699 -0.56656,0.08647 -1.22696,0.188067 -1.46755,0.225778 -0.2406,0.03771 -0.901,0.13931 -1.46756,0.225777 -0.56656,0.08647 -1.22696,0.188068 -1.46756,0.225778 -0.24059,0.03771 -0.90099,0.139311 -1.46755,0.225778 -0.56656,0.08647 -1.22696,0.188067 -1.46756,0.225778 -0.24059,0.03771 -0.90099,0.13931 -1.46755,0.225777 -0.56656,0.08647 -1.22696,0.188068 -1.46756,0.225778 -0.24059,0.03771 -0.90099,0.139311 -1.46755,0.225778 -0.56656,0.08647 -1.22696,0.188081 -1.46756,0.225809 -0.24059,0.03773 -0.65334,0.100931 -0.91722,0.140451 -0.26388,0.03952 -0.50737,0.07815 -0.54109,0.08584 l -0.0613,0.01398 -0.0331,-0.100135 c -0.0182,-0.05508 -0.082,-0.223345 -0.14186,-0.373933 l -0.10881,-0.273798 -0.008,0.394654 -0.008,0.394656 -0.32456,0.04864 c -0.17851,0.02675 -0.52776,0.08034 -0.77611,0.119079 -0.24836,0.03874 -0.91511,0.141238 -1.48167,0.227764 -0.56656,0.08653 -1.22696,0.188177 -1.46755,0.225888 -0.2406,0.03771 -0.901,0.139311 -1.46756,0.225778 -0.56656,0.08647 -1.22696,0.188183 -1.46755,0.226032 -0.2406,0.03785 -0.901,0.139423 -1.46756,0.225718 -0.56656,0.08629 -1.22696,0.187887 -1.46756,0.225758 -0.95162,0.149798 -1.55729,0.240146 -1.6099,0.240146 h -0.0552 v -3.513671 z m -35.882039,3.252612 c -0.007,-0.03493 -0.05236,-0.52705 -0.100877,-1.093611 -0.122274,-1.427997 -0.294443,-3.389348 -0.395139,-4.501445 -0.01546,-0.170745 -0.05381,-0.608895 -0.08522,-0.973667 -0.03141,-0.364772 -0.06931,-0.790222 -0.08424,-0.945444 -0.01492,-0.155223 -0.04688,-0.517173 -0.07102,-0.804334 -0.02414,-0.287161 -0.0625,-0.718961 -0.08525,-0.959555 -0.02275,-0.240595 -0.06687,-0.735895 -0.09806,-1.100667 -0.03118,-0.364772 -0.07573,-0.872772 -0.09898,-1.128889 -0.08151,-0.897599 -0.153688,-1.711958 -0.196349,-2.215445 -0.02367,-0.2794 -0.05553,-0.635 -0.0708,-0.790222 -0.01526,-0.155222 -0.04724,-0.517172 -0.07107,-0.804333 -0.02382,-0.287161 -0.05553,-0.642761 -0.07046,-0.790223 -0.01493,-0.147461 -0.04669,-0.509411 -0.07058,-0.804333 -0.02389,-0.294922 -0.04966,-0.583329 -0.05727,-0.640904 l -0.01384,-0.104681 0.08852,-0.100821 0.08852,-0.100821 0.0067,-0.139603 0.0067,-0.139603 -0.02453,0.01516 -0.02453,0.01516 -0.002,-0.05106 c -0.0057,-0.143709 -0.05252,-0.488008 -0.07995,-0.587277 -0.03014,-0.109106 -0.07894,-0.416426 -0.103057,-0.649111 -0.02052,-0.197948 -0.02616,-0.225419 -0.04988,-0.242825 l -0.02322,-0.01705 -0.04134,-0.265174 c -0.02274,-0.145846 -0.05349,-0.328675 -0.06834,-0.406286 -0.01485,-0.07761 -0.03356,-0.210961 -0.04157,-0.296333 -0.008,-0.08537 -0.02584,-0.186973 -0.03961,-0.225778 -0.01377,-0.03881 -0.04034,-0.165806 -0.05904,-0.282222 -0.0187,-0.116417 -0.04539,-0.248487 -0.05932,-0.29349 -0.01393,-0.045 -0.02547,-0.146602 -0.02566,-0.225777 l -3.34e-4,-0.143956 -0.04124,-0.154982 -0.04124,-0.154983 0.01564,-0.113129 0.01563,-0.113128 -0.02652,0.03755 -0.02652,0.03755 -0.01809,-0.09047 c -0.0099,-0.04974 -0.01809,-0.158719 -0.01809,-0.242151 v -0.151694 h -0.02989 -0.02989 l 0.01423,-0.02303 0.01424,-0.02303 -0.03955,-0.111023 -0.03955,-0.111022 -0.0012,-0.143831 -0.0012,-0.143831 -0.04111,-0.08241 -0.04111,-0.08241 -0.005,-0.217823 -0.005,-0.217823 -0.0385,-0.07421 -0.0385,-0.07422 v -0.14183 -0.141829 l -0.04119,-0.03133 -0.04119,-0.03133 -0.0136,-0.141111 c -0.01538,-0.15962 -0.08709,-0.573094 -0.114191,-0.65849 l -0.01791,-0.05643 0.02937,-0.01815 0.02937,-0.01815 -4.32e-4,-0.104168 -4.32e-4,-0.104168 -0.02626,0.04152 c -0.04835,0.07645 -0.0571,0.04167 -0.170242,-0.676516 -0.03057,-0.194028 -0.07461,-0.460728 -0.09788,-0.592667 -0.02327,-0.131939 -0.04255,-0.293114 -0.04286,-0.358168 l -5.64e-4,-0.118279 -0.0234,-0.01446 c -0.02702,-0.0167 -0.07409,-0.225367 -0.11621,-0.515208 -0.01613,-0.11098 -0.03696,-0.22528 -0.0463,-0.254 l -0.01697,-0.05222 0.02935,0.04152 0.02935,0.04152 0.01903,-0.01903 0.01903,-0.01903 -0.01854,-0.09881 -0.01854,-0.09881 -0.0413,0.01585 -0.04129,0.01585 -0.0049,-0.08769 c -0.0097,-0.17144 -0.02315,-0.247243 -0.108604,-0.609821 l -0.08647,-0.366889 0.0071,-0.08467 0.0071,-0.08467 -0.03933,-0.169333 -0.03934,-0.169333 0.0055,-0.121808 0.0055,-0.121808 -0.02567,0.01586 -0.02567,0.01586 -0.02962,-0.176277 -0.02962,-0.176276 0.01592,-0.07761 0.01592,-0.07761 H 71.66506 71.63664 L 71.61836,63.123413 C 71.6083,63.065203 71.59289,62.970026 71.5841,62.911904 l -0.01598,-0.105676 -0.02527,0.01562 -0.02527,0.01562 v -0.0577 c 0,-0.0787 -0.05498,-0.307515 -0.09945,-0.413867 -0.02006,-0.04798 -0.05277,-0.1842 -0.07268,-0.302705 -0.01991,-0.118505 -0.04268,-0.20899 -0.05059,-0.201079 -0.0079,0.0079 -0.03673,-0.05618 -0.06404,-0.142415 l -0.04966,-0.1568 0.01601,-0.04171 c 0.0088,-0.02294 0.02417,-0.04272 0.03415,-0.04395 0.01,-0.0012 0.112751,-0.0081 0.228376,-0.01532 l 0.210229,-0.01308 0.02966,-0.02338 c 0.03405,-0.02684 0.226143,-0.07062 0.505099,-0.115121 l 0.193217,-0.03082 0.03931,0.03262 0.03931,0.03262 0.101446,-0.01903 0.101446,-0.01903 -0.01558,-0.04061 -0.01558,-0.04061 0.09084,-0.0052 c 0.04996,-0.0029 0.116236,-0.008 0.147281,-0.01133 0.03104,-0.0034 0.100894,-0.0083 0.155222,-0.01089 l 0.09878,-0.0048 -0.05645,-0.02425 -0.05644,-0.02426 0.108187,-0.002 c 0.0595,-0.0011 0.211308,-0.02831 0.337345,-0.06049 l 0.229159,-0.05851 0.09265,0.01738 0.09265,0.01738 0.06336,-0.03391 c 0.06594,-0.03529 0.19193,-0.05665 0.360763,-0.06117 l 0.09878,-0.0026 0.01704,-0.02494 0.01704,-0.02494 0.392183,-0.068 0.392184,-0.068 0.170745,-5.11e-4 0.170744,-5.11e-4 0.02686,-0.02686 0.02685,-0.02685 0.240285,-0.0419 0.240286,-0.0419 0.112448,0.0089 c 0.06185,0.0049 0.09004,0.0032 0.06264,-0.0038 l -0.04981,-0.01271 0.01398,-0.02263 0.01398,-0.02263 0.162824,0.03831 0.162824,0.03831 0.183444,-0.0038 0.183445,-0.0038 -0.08467,-0.01038 c -0.04657,-0.0057 -0.139857,-0.02485 -0.207311,-0.04253 l -0.122643,-0.03214 0.04358,-0.02439 c 0.0546,-0.03056 0.703561,-0.118842 0.836707,-0.113827 l 0.09878,0.0037 0.155222,-0.05347 c 0.251965,-0.0868 0.369427,-0.111607 0.678837,-0.143359 l 0.293098,-0.03008 0.02909,-0.02306 c 0.016,-0.01268 0.105288,-0.03218 0.198421,-0.04333 0.09313,-0.01115 0.328084,-0.05182 0.522111,-0.09037 l 0.352778,-0.0701 0.239889,-0.0091 c 0.131939,-0.005 0.268464,-0.01036 0.303389,-0.01189 l 0.0635,-0.0028 v -0.04233 -0.04233 l 0.07761,-0.0036 c 0.04269,-0.002 0.133355,-0.0073 0.201486,-0.01175 l 0.123875,-0.0081 0.01724,-0.02603 0.01724,-0.02603 0.296334,-0.04913 c 0.162983,-0.02702 0.378883,-0.06023 0.479777,-0.0738 0.100895,-0.01357 0.221545,-0.03579 0.268112,-0.04937 0.04657,-0.01358 0.12138,-0.02238 0.166252,-0.01956 l 0.08159,0.0051 0.07364,-0.03662 0.07364,-0.03662 0.296333,-0.04752 c 0.162983,-0.02614 0.391583,-0.05362 0.508,-0.06107 l 0.211667,-0.01355 0.03001,-0.02425 0.03001,-0.02425 0.111104,0.01371 0.111105,0.01371 -0.05526,-0.02411 -0.05526,-0.02411 0.139927,-0.01673 c 0.07696,-0.0092 0.165327,-0.02518 0.196372,-0.03551 l 0.05644,-0.01878 -0.04233,0.033 -0.04233,0.033 0.112674,-0.01879 c 0.06197,-0.01033 0.122503,-0.02486 0.134516,-0.03228 l 0.02184,-0.0135 -0.01624,-0.02627 -0.01624,-0.02627 0.09339,-0.0019 c 0.261404,-0.0054 0.554745,-0.04768 0.605157,-0.08729 0.0176,-0.01383 0.09708,-0.03152 0.176635,-0.03931 0.07955,-0.0078 0.173108,-0.0247 0.207897,-0.03755 0.03479,-0.01286 0.07913,-0.01779 0.09853,-0.01097 l 0.03528,0.01241 v 0.05409 0.05409 h -0.02883 -0.02883 l -0.03233,0.07096 -0.03233,0.07096 -0.04935,-0.01566 -0.04935,-0.01566 -0.01795,0.02905 -0.01795,0.02905 0.0438,-0.01681 0.0438,-0.01681 v 0.04147 c 0,0.03741 -0.04042,0.09796 -0.224265,0.33592 -0.03188,0.04126 -0.05796,0.09524 -0.05796,0.119944 v 0.04492 l -0.03528,0.0033 c -0.0194,0.0018 -0.04435,0.002 -0.05543,3.39e-4 l -0.02015,-0.003 0.01652,0.04305 0.01652,0.04305 -0.04989,0.05513 -0.04989,0.05513 -0.03381,-0.04624 -0.03381,-0.04624 -0.0155,0.05926 -0.0155,0.05926 0.02395,0.0084 0.02395,0.0084 -0.04656,0.0958 -0.04656,0.0958 -0.05114,0.01337 -0.05114,0.01337 -0.01724,0.107802 -0.01724,0.107802 -0.04047,0.01553 -0.04047,0.01553 0.01704,-0.02758 0.01704,-0.02758 -0.0496,0.01904 c -0.02728,0.01047 -0.07239,0.03855 -0.100244,0.06239 l -0.05064,0.04336 v 0.06428 0.06428 h 0.02587 c 0.01423,0 0.03228,-0.01588 0.0401,-0.03528 l 0.01424,-0.03528 0.0022,0.03311 c 0.0012,0.01821 -0.02689,0.06901 -0.06248,0.112889 -0.03559,0.04388 -0.08668,0.114702 -0.113539,0.157388 l -0.04883,0.07761 h -0.04222 -0.04222 l 0.01675,0.06673 0.01675,0.06673 -0.04443,0.01705 -0.04443,0.01705 v 0.03885 c 0,0.02137 -0.0254,0.06183 -0.05644,0.08993 l -0.05644,0.05108 v -0.0326 c 10e-7,-0.01793 -0.01185,-0.0326 -0.02633,-0.0326 h -0.02633 l 0.0024,0.08518 0.0024,0.08518 -0.08462,0.105318 c -0.04654,0.05793 -0.10617,0.147009 -0.132511,0.197964 l -0.0479,0.09265 -0.02488,-0.01538 -0.02488,-0.01538 -0.0096,0.04968 -0.0096,0.04968 -0.05561,5.6e-5 -0.05561,5.7e-5 -0.01029,0.05306 -0.01029,0.05306 0.03308,0.02045 0.03308,0.02045 -0.04317,0.04317 c -0.02374,0.02374 -0.06595,0.08014 -0.09381,0.125338 -0.02785,0.04519 -0.08046,0.129196 -0.116904,0.18667 l -0.06626,0.1045 -0.02514,-0.01553 -0.02514,-0.01553 0.01598,0.04163 0.01598,0.04163 -0.05636,0.03016 -0.05636,0.03016 -0.01416,-0.03505 -0.01416,-0.03505 -0.0055,0.07056 c -0.003,0.03881 -0.0072,0.08711 -0.0093,0.107341 -0.0021,0.02023 -0.03253,0.0585 -0.06763,0.08504 l -0.06383,0.04825 -0.01192,0.06189 c -0.01326,0.06884 -0.155713,0.29106 -0.158537,0.247306 -9.85e-4,-0.01525 -0.01328,8.58e-4 -0.02731,0.03578 l -0.02552,0.0635 h -0.05735 -0.05735 v 0.05409 0.05409 l 0.02843,0.0095 0.02843,0.0095 -0.06727,0.07255 c -0.037,0.0399 -0.07552,0.09852 -0.08559,0.130265 -0.01007,0.03174 -0.04339,0.08041 -0.07404,0.108143 -0.03065,0.02774 -0.05572,0.06751 -0.05572,0.08839 0,0.02088 -0.0095,0.03804 -0.02117,0.03814 -0.01164,8.5e-5 -0.0428,0.0382 -0.06924,0.08467 l -0.04808,0.08448 h -0.04555 -0.04555 l 0.01653,0.05208 0.01653,0.05208 -0.07674,0.07674 c -0.04221,0.04221 -0.07964,0.09651 -0.08319,0.120684 -0.0035,0.02417 -0.03678,0.07733 -0.07386,0.118125 -0.03707,0.0408 -0.08906,0.109106 -0.115534,0.151792 l -0.04812,0.07761 h -0.04474 -0.04474 l 0.01654,0.06591 0.01654,0.06591 -0.04896,0.05404 c -0.02693,0.02972 -0.06447,0.08896 -0.08343,0.131647 -0.01896,0.04269 -0.0459,0.07761 -0.05987,0.07761 -0.01397,0 -0.04112,0.03794 -0.06032,0.08431 l -0.03492,0.08431 -0.02495,-0.01542 -0.02495,-0.01542 v 0.05712 0.05712 l -0.05644,0.03021 -0.05645,0.03021 v 0.04036 0.04036 l -0.08467,0.09643 c -0.04657,0.05304 -0.08467,0.107735 -0.08467,0.121552 0,0.01382 -0.03588,0.06929 -0.07974,0.123274 -0.04386,0.05398 -0.08837,0.121583 -0.09892,0.150221 l -0.01918,0.05207 -0.0584,0.01527 -0.0584,0.01527 0.01662,0.06622 0.01662,0.06622 -0.05686,0.03551 -0.05686,0.03551 v 0.051 0.051 l -0.06663,0.06215 c -0.03665,0.03418 -0.07566,0.09091 -0.0867,0.126062 l -0.02007,0.06391 -0.02318,-0.01433 -0.02318,-0.01433 -0.01766,0.07036 -0.01766,0.07036 h -0.02636 c -0.0145,0 -0.04745,0.04445 -0.07323,0.09878 l -0.04687,0.09878 h -0.03812 -0.03813 l -0.02822,0.05273 -0.02822,0.05273 0.0162,0.0162 0.0162,0.0162 -0.05952,0.08359 c -0.03274,0.04598 -0.05952,0.09826 -0.05952,0.11618 v 0.03259 l -0.02822,-0.01744 -0.02822,-0.01744 v 0.04335 0.04335 l -0.06758,0.04428 -0.06757,0.04428 0.01356,0.05185 0.01356,0.05185 -0.05431,0.03858 -0.05431,0.03858 -0.01901,0.0768 -0.01901,0.0768 -0.05611,0.03003 -0.05611,0.03003 v 0.04223 0.04223 l -0.04233,0.01624 -0.04233,0.01624 v 0.03866 0.03866 l -0.07197,0.04716 -0.07197,0.04716 0.01382,0.03602 0.01382,0.03602 -0.06469,0.06564 c -0.03558,0.0361 -0.08056,0.09581 -0.09996,0.132677 -0.0194,0.03687 -0.0801,0.125769 -0.134893,0.197555 l -0.09963,0.13052 h -0.03154 -0.03154 l -0.0028,0.09606 -0.0028,0.09606 -0.04657,0.03405 c -0.02561,0.01873 -0.04657,0.04987 -0.04657,0.0692 0,0.01933 -0.03097,0.07195 -0.06882,0.11694 l -0.06882,0.08179 -0.01946,-0.03148 -0.01946,-0.03148 0.03889,-0.02405 0.03889,-0.02405 -0.04777,-0.04778 -0.04777,-0.04778 0.01084,0.145535 0.01084,0.145536 h -0.02657 -0.02657 v 0.04168 0.04168 l -0.07197,0.04716 -0.07197,0.04716 0.01321,0.03441 0.0132,0.03441 -0.08234,0.09015 c -0.04529,0.04958 -0.08234,0.10282 -0.08234,0.1183 v 0.02815 l -0.03258,-0.02014 -0.03258,-0.02014 0.01856,0.03004 0.01856,0.03004 -0.01784,0.0465 -0.01784,0.0465 -0.03869,-0.01485 -0.03869,-0.01485 -8.97e-4,0.0485 c -0.0011,0.06149 -0.07549,0.161352 -0.120262,0.16152 l -0.03406,1.41e-4 -0.0016,0.07043 c -8.72e-4,0.03873 -0.01523,0.09472 -0.03192,0.124414 l -0.03033,0.05399 -0.01937,-0.06104 -0.01937,-0.06104 h -0.05454 -0.05454 v 0.03086 0.03086 l 0.05644,0.01476 0.05644,0.01476 v 0.04767 0.04767 l -0.0635,0.08604 c -0.03492,0.04732 -0.0889,0.121674 -0.119944,0.165223 -0.03104,0.04355 -0.09772,0.120538 -0.148167,0.171087 -0.05045,0.05055 -0.09172,0.107122 -0.09172,0.125718 0,0.0186 -0.03403,0.09634 -0.07562,0.17276 l -0.07563,0.138949 -0.03726,-0.0143 -0.03726,-0.0143 -0.0033,0.0485 c -0.0018,0.02668 -0.0013,0.05959 0.0011,0.07313 l 0.0045,0.02463 -0.04349,-0.01669 -0.04349,-0.01669 v 0.04145 0.04145 h -0.04233 -0.04233 v 0.04233 0.04233 h -0.02822 -0.02822 v 0.07023 0.07023 l -0.04939,0.05768 c -0.02716,0.03172 -0.04984,0.0668 -0.05039,0.07793 -5.5e-4,0.01114 -0.01779,0.05054 -0.03831,0.08756 l -0.03731,0.06731 -0.02605,-0.03909 -0.02605,-0.03909 0.01604,0.07055 0.01604,0.07056 -0.08574,0.09346 -0.08574,0.09346 v 0.04059 0.04059 h -0.02822 -0.02822 l -10e-4,-0.03528 c -5.59e-4,-0.0194 -0.02577,0.03355 -0.05603,0.117685 l -0.05501,0.152962 -0.05686,0.06052 c -0.03127,0.03327 -0.05686,0.07401 -0.05686,0.09051 0,0.0165 -0.01905,0.04581 -0.04233,0.06514 l -0.04233,0.03513 v -0.03168 c 0,-0.01742 -0.01151,-0.03168 -0.02558,-0.03168 h -0.02558 l 0.01601,0.06121 0.016,0.0612 -0.05001,-0.01919 -0.05001,-0.01919 0.01794,0.07149 0.01794,0.07149 -0.04217,0.01618 -0.04217,0.01618 -0.03475,0.09609 c -0.01911,0.05285 -0.04489,0.09608 -0.0573,0.09608 -0.0124,0 -0.02255,0.01905 -0.02255,0.04233 v 0.04233 h -0.04145 -0.04145 l 0.01399,0.03646 0.01399,0.03646 -0.08543,0.06316 -0.08543,0.06316 -0.002,0.09088 -0.002,0.09088 -0.02425,-0.05644 -0.02426,-0.05645 -0.0052,0.04233 c -0.0029,0.02328 -0.003,0.06464 -1.69e-4,0.09191 l 0.0051,0.04958 -0.04284,0.01644 c -0.03897,0.01495 -0.0765,0.06568 -0.22047,0.297976 l -0.04803,0.0775 0.04097,-0.01572 c 0.02254,-0.0086 0.04115,-0.02389 0.04137,-0.03387 2.26e-4,-0.01 0.04784,-0.07086 0.105833,-0.135286 0.05799,-0.06443 0.13924,-0.159677 0.180558,-0.211667 0.10522,-0.132399 1.008556,-1.254748 1.402761,-1.742859 0.180586,-0.223604 0.353738,-0.439432 0.384783,-0.479616 0.06005,-0.07773 1.155541,-1.445566 1.234128,-1.540941 0.09254,-0.112309 0.235195,-0.290255 0.318094,-0.396789 0.04657,-0.05984 0.148578,-0.185548 0.226693,-0.279343 0.07811,-0.09379 0.185736,-0.227685 0.239159,-0.297535 0.05342,-0.06985 0.104306,-0.13335 0.113072,-0.141111 0.0088,-0.0078 0.07894,-0.09666 0.155952,-0.197556 0.07701,-0.100894 0.14747,-0.189794 0.156586,-0.197555 0.0091,-0.0078 0.377161,-0.464961 0.817881,-1.016 0.44072,-0.551039 0.830277,-1.033639 0.865683,-1.072445 0.03541,-0.03881 0.07144,-0.09278 0.08008,-0.119944 0.0086,-0.02716 0.02601,-0.04939 0.0386,-0.04939 0.01259,0 0.09343,-0.09207 0.179628,-0.204611 0.135392,-0.176757 0.366184,-0.46637 0.523034,-0.656336 0.0257,-0.03114 0.478537,-0.596212 1.006293,-1.25572 0.527755,-0.659509 0.980486,-1.224583 1.006068,-1.25572 0.02558,-0.03114 0.153043,-0.189964 0.283249,-0.352947 0.130205,-0.162983 0.264247,-0.328083 0.297871,-0.366889 0.03362,-0.03881 0.115712,-0.141831 0.182418,-0.228947 0.152161,-0.198717 0.678104,-0.852761 0.700984,-0.87172 0.0094,-0.0078 0.14742,-0.179211 0.306784,-0.381 0.159365,-0.201788 0.313094,-0.394489 0.34162,-0.428223 0.02853,-0.03373 0.07259,-0.09297 0.09793,-0.131636 l 0.04606,-0.0703 0.132395,-0.017 c 0.07282,-0.0093 0.284795,-0.02978 0.471062,-0.04539 0.186267,-0.01562 0.764117,-0.06541 1.284111,-0.110645 0.519995,-0.04524 1.167695,-0.09841 1.439333,-0.11816 l 0.493889,-0.03591 1.086556,0.0021 1.086555,0.0021 0.381,0.03229 c 2.23974,0.189818 4.169601,0.627994 5.601189,1.271751 0.09364,0.04211 0.214706,0.0943 0.269033,0.115979 0.863027,0.344402 2.546538,1.375673 3.199948,1.960195 0.0173,0.01552 0.17759,0.157162 0.35608,0.314756 1.41048,1.245342 2.706,3.05691 3.38761,4.737022 0.0441,0.108656 0.1242,0.302143 0.17804,0.429971 0.0538,0.127829 0.18735,0.502948 0.2967,0.833598 l 0.19881,0.601182 0.15447,0.619847 c 0.28464,1.14222 0.43679,2.109474 0.55921,3.554958 l 0.0311,0.366889 -5.4e-4,0.959556 -5.6e-4,0.959555 -0.0464,0.479778 c -0.15673,1.619294 -0.59767,3.427546 -1.11145,4.557889 -0.0318,0.06985 -0.10502,0.23495 -0.16282,0.366889 -0.48433,1.105573 -1.19907,2.259583 -2.08881,3.372556 -0.11168,0.1397 -0.22946,0.281443 -0.26172,0.314984 l -0.0587,0.06098 -0.093,0.01904 c -0.0511,0.01047 -0.21362,0.05558 -0.36108,0.100246 -0.14746,0.04467 -0.38241,0.114365 -0.52211,0.154889 -0.1397,0.04052 -0.48895,0.141839 -0.77611,0.225144 -0.28717,0.08331 -0.63642,0.185177 -0.77612,0.226381 -0.1397,0.0412 -0.31115,0.09138 -0.381,0.111496 -0.0698,0.02012 -0.22225,0.0646 -0.33866,0.09884 -0.11642,0.03424 -0.268821,0.07822 -0.338671,0.09773 -0.06985,0.01951 -0.41275,0.119423 -0.762,0.222029 -0.34925,0.102606 -0.76835,0.224669 -0.931333,0.271251 -0.162984,0.04658 -0.378884,0.110444 -0.479778,0.141912 -0.100895,0.03147 -0.342195,0.102635 -0.536222,0.158146 -0.473861,0.135571 -1.944155,0.563945 -2.173112,0.633143 -0.330681,0.09994 -0.774979,0.231128 -0.832555,0.245827 -0.06754,0.01724 -0.849875,0.242047 -1.128889,0.324391 -0.108655,0.03207 -0.280105,0.08226 -0.381,0.11154 -0.100894,0.02928 -0.265994,0.07876 -0.366889,0.109954 -0.100894,0.0312 -0.446969,0.132549 -0.769055,0.225228 -1.418188,0.408082 -1.767096,0.509679 -1.926167,0.560882 -0.09313,0.02998 -0.194733,0.06046 -0.225778,0.06774 -0.03104,0.0073 -0.170744,0.04717 -0.310444,0.08865 -0.1397,0.04148 -0.53975,0.1584 -0.889,0.259828 -0.34925,0.101425 -0.80645,0.234715 -1.016,0.2962 -0.20955,0.06148 -0.6223,0.180532 -0.917222,0.26455 -0.294923,0.08402 -0.593373,0.171783 -0.663223,0.195038 -0.06985,0.02326 -0.37465,0.112429 -0.677333,0.198159 -0.302683,0.08573 -0.607483,0.175091 -0.677333,0.198578 -0.06985,0.02349 -0.1905,0.0599 -0.268111,0.08091 -0.125143,0.03388 -1.376611,0.397242 -2.102556,0.610466 -0.350119,0.102839 -1.715661,0.502525 -1.933222,0.565842 -0.09313,0.02711 -0.416983,0.121669 -0.719667,0.21014 -0.302683,0.08847 -0.607483,0.176857 -0.677333,0.196412 -0.06985,0.01956 -0.508,0.147264 -0.973667,0.283795 -0.465666,0.13653 -0.967316,0.283246 -1.114777,0.326031 -0.147461,0.04279 -0.445763,0.129831 -0.662894,0.193427 -0.21713,0.0636 -0.410563,0.115632 -0.429851,0.115632 h -0.03507 l -0.01267,-0.0635 z M 86.108396,83.80265 c 0.162983,-0.01593 0.874183,-0.07946 1.580445,-0.141177 2.611724,-0.228219 3.051298,-0.295624 3.951111,-0.605867 l 0.296333,-0.102172 0.402025,-0.194441 0.402026,-0.194442 0.218863,-0.146162 c 0.805235,-0.537758 1.360644,-1.171994 1.77773,-2.030036 l 0.171482,-0.352778 0.100291,-0.296333 c 0.253249,-0.74829 0.369574,-1.449247 0.402782,-2.427112 l 0.01773,-0.522111 -0.03284,-0.533919 c -0.09125,-1.483719 -0.506041,-3.273579 -0.876945,-3.784081 -0.01128,-0.01552 -0.07462,-0.129182 -0.14077,-0.252576 -0.175727,-0.327817 -0.33821,-0.564932 -0.602607,-0.879398 L 93.541358,71.060908 93.275042,70.82603 93.008725,70.591153 92.740614,70.414192 92.472503,70.237232 92.119725,70.066429 91.766948,69.895626 91.456503,69.794207 C 91.060355,69.66479 90.761793,69.59538 90.285281,69.521919 l -0.381,-0.05874 -0.677333,-0.0161 -0.677334,-0.0161 -0.384367,0.03222 c -0.211401,0.01772 -0.884501,0.07656 -1.495777,0.130754 -0.611276,0.05419 -1.368586,0.120285 -1.682911,0.146873 l -0.5715,0.04834 2.4e-5,0.09964 c 1.3e-5,0.0548 0.01253,0.232993 0.02781,0.395977 0.01528,0.162983 0.04065,0.442383 0.05637,0.620889 0.01572,0.178505 0.06057,0.680155 0.09966,1.114777 0.03909,0.434623 0.102887,1.152173 0.141767,1.594556 0.14649,1.666824 0.21084,2.394197 0.238445,2.695222 0.01566,0.170745 0.0537,0.615245 0.08454,0.987778 0.03084,0.372534 0.06879,0.797984 0.08433,0.945445 0.01554,0.147461 0.04778,0.496711 0.07163,0.776111 0.02385,0.2794 0.09942,1.13665 0.167931,1.905 0.06851,0.76835 0.151476,1.72085 0.184373,2.116667 0.0329,0.395817 0.06506,0.735542 0.07147,0.754944 l 0.01166,0.03528 0.0785,8.5e-5 c 0.04317,5.6e-5 0.211847,-0.01296 0.37483,-0.02889 z m 61.580884,0.189112 v -4.331521 l 0.20462,-0.04436 c 0.11253,-0.0244 0.72531,-0.146988 1.36172,-0.272424 0.63641,-0.125436 1.98896,-0.393136 3.00566,-0.59489 6.04772,-1.2001 6.53164,-1.295322 6.58284,-1.295325 l 0.0494,-2e-6 v 3.471278 3.471278 l 7.10494,0.0071 7.10494,0.0071 -0.62088,0.09427 c -0.34149,0.05185 -0.81139,0.12436 -1.04423,0.16113 -0.23283,0.03677 -0.88688,0.137571 -1.45344,0.224004 -0.56656,0.08643 -1.22696,0.188004 -1.46756,0.225714 -0.24059,0.03771 -0.90099,0.139311 -1.46755,0.225778 -0.56656,0.08647 -1.22696,0.188067 -1.46756,0.225778 -0.24059,0.03771 -0.90099,0.13931 -1.46755,0.225778 -0.56656,0.08647 -1.22696,0.188067 -1.46756,0.225777 -0.24059,0.03771 -0.90099,0.139311 -1.46755,0.225778 -0.56656,0.08647 -1.22696,0.188067 -1.46756,0.225778 -0.24059,0.03771 -0.90099,0.139311 -1.46756,0.225778 -0.56656,0.08647 -1.22696,0.188067 -1.46755,0.225778 -0.2406,0.03771 -0.90099,0.13931 -1.46756,0.225777 -0.56656,0.08647 -1.22696,0.188068 -1.46755,0.225778 -0.2406,0.03771 -0.901,0.139311 -1.46756,0.225778 -0.56656,0.08647 -1.22696,0.188068 -1.46755,0.225778 -0.2406,0.03771 -0.901,0.139288 -1.46756,0.225727 -0.56656,0.08644 -1.15711,0.176575 -1.31233,0.200299 -0.15522,0.02373 -0.31715,0.04981 -0.35983,0.05796 l -0.0776,0.01482 z m 63.754,3.279153 c -0.13194,-0.05816 -0.28434,-0.124406 -0.33866,-0.147222 -0.0543,-0.02281 -0.18768,-0.07935 -0.29634,-0.125633 -0.10865,-0.04628 -0.3563,-0.1502 -0.55033,-0.230927 -0.19403,-0.08073 -0.40358,-0.170062 -0.46567,-0.198525 -0.0621,-0.02846 -0.19544,-0.08524 -0.29633,-0.126161 -0.1009,-0.04093 -0.25047,-0.10539 -0.33238,-0.143252 -0.0819,-0.03786 -0.15557,-0.06884 -0.16367,-0.06884 -0.008,0 -0.30938,-0.125788 -0.66951,-0.279529 -0.36012,-0.153741 -0.81352,-0.345636 -1.00755,-0.426433 -0.19403,-0.0808 -0.39088,-0.164072 -0.43745,-0.185056 -0.17978,-0.08101 -1.17151,-0.503016 -1.45344,-0.618474 -0.16298,-0.06674 -0.55668,-0.232421 -0.87489,-0.368168 -0.31821,-0.135747 -0.69286,-0.294754 -0.83256,-0.353349 -0.1397,-0.05859 -0.4064,-0.172542 -0.59266,-0.253218 -0.18627,-0.08068 -0.44402,-0.189675 -0.57279,-0.242221 -0.12877,-0.05254 -0.28854,-0.120327 -0.35505,-0.150627 -0.0665,-0.0303 -0.18873,-0.08182 -0.27161,-0.114481 -0.0829,-0.03266 -0.20352,-0.08346 -0.26811,-0.112888 -0.0646,-0.02942 -0.18626,-0.08057 -0.27038,-0.113661 -0.0841,-0.03309 -0.23321,-0.09725 -0.33131,-0.142584 -0.0981,-0.04533 -0.18444,-0.08242 -0.19187,-0.08242 -0.007,0 -0.27007,-0.109488 -0.58365,-0.243307 -0.31356,-0.133819 -0.74792,-0.318554 -0.96523,-0.410523 -0.21731,-0.09197 -0.46496,-0.197796 -0.55034,-0.23517 -0.15184,-0.06647 -0.37919,-0.16283 -1.49577,-0.633951 -0.30269,-0.127711 -0.62019,-0.264705 -0.70556,-0.304431 l -0.15522,-0.07223 0.0423,-0.0093 c 0.0428,-0.0094 0.59125,-0.09472 1.05834,-0.164547 0.48798,-0.07295 1.04759,-0.158649 1.48166,-0.226901 0.86627,-0.136211 1.35032,-0.210969 1.91911,-0.296393 0.31821,-0.04779 0.77541,-0.117728 1.016,-0.155418 0.2406,-0.03769 0.647,-0.100784 0.90311,-0.140207 0.25612,-0.03942 0.58632,-0.09053 0.73378,-0.113571 0.14746,-0.02304 0.43321,-0.06636 0.635,-0.09626 0.20179,-0.02991 0.53834,-0.08133 0.74789,-0.114273 0.86081,-0.135332 1.28487,-0.200839 1.83445,-0.283377 0.3182,-0.04779 0.7754,-0.117728 1.016,-0.155418 1.24841,-0.195571 1.74586,-0.270228 1.85674,-0.278656 l 0.0397,-0.003 0.15076,0.635 c 0.0829,0.34925 0.18302,0.76835 0.22246,0.931333 0.0394,0.162983 0.0902,0.385233 0.11287,0.493889 0.0226,0.108656 0.0922,0.407106 0.1546,0.663222 0.0624,0.256117 0.21595,0.903817 0.34126,1.439334 0.1253,0.535516 0.26556,1.132416 0.31168,1.326444 0.0461,0.194028 0.12253,0.517878 0.16981,0.719667 0.0473,0.201789 0.11028,0.468489 0.14001,0.592667 0.21995,0.918704 0.39571,1.689735 0.38886,1.705771 l -0.008,0.01909 z M 111.07571,74.668014 111.0652,62.84824 111.0343,62.537796 c -0.017,-0.170744 -0.0447,-0.448668 -0.0615,-0.617608 -0.0169,-0.16894 -0.0258,-0.312069 -0.0198,-0.318064 0.006,-0.006 3.67795,-0.01052 8.15989,-0.01006 l 8.14899,8.39e-4 0.48409,0.02761 c 4.10186,0.233933 7.38637,1.319034 9.97669,3.295984 0.19633,0.149841 0.38871,0.299675 0.42752,0.332964 0.50018,0.429071 1.12163,1.02493 1.42522,1.366534 0.62054,0.698235 1.0091,1.212967 1.53063,2.027649 0.11277,0.176159 0.20504,0.325636 0.20504,0.332172 0,0.0065 0.0298,0.05926 0.0663,0.117155 0.2973,0.472152 0.79612,1.516725 1.0791,2.259728 0.87673,2.301948 1.27229,4.588588 1.32936,7.684764 l 0.0175,0.949219 -0.0537,0.01573 c -0.0296,0.0086 -0.64428,0.131638 -1.36606,0.273309 -0.72179,0.141671 -1.90924,0.376408 -2.63878,0.521637 -2.15148,0.428293 -8.05246,1.597127 -8.48744,1.681146 -0.2336,0.04512 -0.22456,0.0563 -0.16117,-0.199255 0.12095,-0.48758 0.23247,-1.281236 0.27921,-1.986992 l 0.0297,-0.44888 -1.4e-4,-0.792898 -1.4e-4,-0.792897 -0.0412,-0.465667 c -0.22381,-2.527977 -1.20094,-4.281876 -2.89671,-5.199438 -0.1026,-0.05552 -0.21055,-0.11463 -0.23988,-0.131356 -1.05976,-0.604308 -3.50645,-1.103878 -5.40636,-1.103878 h -0.13607 l -0.007,6.411642 -0.007,6.411641 -0.59267,0.119112 c -0.6381,0.128243 -4.08875,0.812434 -5.40455,1.071608 -0.74246,0.146241 -1.54156,0.304522 -4.41678,0.874842 -0.58985,0.117 -1.09441,0.219246 -1.12125,0.227214 l -0.0488,0.01449 z m 84.57724,5.666774 c -0.1397,-0.05989 -0.67945,-0.289273 -1.19945,-0.509747 -0.51999,-0.220473 -1.26929,-0.538416 -1.66511,-0.706538 -0.39581,-0.168122 -1.08796,-0.461253 -1.53811,-0.651401 -0.45014,-0.190148 -0.82192,-0.348189 -0.82617,-0.351202 -0.004,-0.003 0.0361,-0.188269 0.0896,-0.41168 0.0535,-0.22341 0.20027,-0.844351 0.32606,-1.379867 0.12579,-0.535517 0.49186,-2.090858 0.81348,-3.456312 l 0.58478,-2.482646 1.18533,-0.234579 c 0.65194,-0.129018 1.97909,-0.392169 2.94923,-0.584781 0.97013,-0.192611 2.86243,-0.567628 4.20511,-0.833371 1.34267,-0.265744 3.26593,-0.647256 4.27391,-0.847805 1.00799,-0.200549 1.83894,-0.3584 1.84656,-0.35078 0.008,0.0076 0.0799,0.296274 0.16053,0.641453 0.16256,0.695521 0.31655,1.349877 0.60597,2.574931 0.10635,0.450145 0.31547,1.339145 0.46472,1.975556 0.14925,0.636411 0.35267,1.500011 0.45204,1.919111 0.0994,0.4191 0.27604,1.1684 0.39261,1.665111 0.11656,0.496712 0.27483,1.169787 0.35172,1.495724 0.0769,0.325937 0.13734,0.595056 0.13436,0.598043 -0.003,0.003 -0.38613,0.06361 -0.85143,0.13473 -0.4653,0.07111 -1.00474,0.154153 -1.19877,0.184529 -0.47297,0.07405 -2.28565,0.353073 -2.63878,0.406189 -0.15522,0.02335 -0.81562,0.124957 -1.46755,0.225798 -0.65194,0.100842 -1.31234,0.202442 -1.46756,0.225778 -0.15522,0.02334 -0.81562,0.124936 -1.46756,0.225778 -0.65193,0.100841 -1.31233,0.202441 -1.46755,0.225778 -0.15522,0.02334 -0.81976,0.12563 -1.47675,0.227319 -0.65699,0.10169 -1.22214,0.184637 -1.25589,0.184328 l -0.0614,-5.62e-4 -0.254,-0.108885 z m -47.9637,-9.351491 v -8.219723 l -0.0281,-0.677334 c -0.0155,-0.372533 -0.0346,-0.724958 -0.0426,-0.783166 l -0.0145,-0.105834 1.46083,-1.3e-5 1.46084,-1.3e-5 0.52211,0.224058 c 0.28716,0.123231 0.81421,0.347018 1.17122,0.497304 0.91184,0.383845 1.21448,0.512086 1.42522,0.603929 0.1009,0.04397 0.3549,0.152537 0.56445,0.241258 0.20955,0.08872 0.4318,0.184113 0.49388,0.211983 0.0621,0.02787 0.25259,0.107722 0.42334,0.177449 0.17074,0.06973 0.36124,0.14824 0.42333,0.174474 1.55359,0.656417 1.98999,0.841778 2.06022,0.875085 0.0466,0.02208 0.38947,0.168401 0.762,0.325153 0.37254,0.156752 0.91864,0.387519 1.21356,0.512816 0.29492,0.125297 0.66322,0.281666 0.81844,0.347486 0.15523,0.06582 0.56798,0.240882 0.91723,0.389027 1.68786,0.715963 1.98022,0.838684 1.99834,0.838845 0.0107,8.5e-5 0.0576,0.02039 0.10421,0.0451 0.0466,0.02471 0.18627,0.08687 0.31045,0.138134 0.12417,0.05126 0.48612,0.20386 0.80433,0.339103 0.61153,0.259914 1.14649,0.486375 1.56633,0.663071 0.1397,0.05879 0.3937,0.166505 0.56445,0.239356 0.17074,0.07285 0.38664,0.164307 0.47978,0.203233 0.0931,0.03893 0.22013,0.0936 0.28222,0.12149 0.0621,0.02789 0.19544,0.08509 0.29633,0.127116 0.1009,0.04202 0.23425,0.09936 0.29634,0.127414 0.0621,0.02806 0.2086,0.08903 0.32558,0.135503 0.24456,0.09715 0.52656,0.216431 1.39597,0.59048 0.34149,0.14692 0.75424,0.321837 0.91722,0.388705 0.32962,0.135232 0.73131,0.305779 0.86078,0.365465 0.0466,0.02147 0.15349,0.06608 0.23761,0.09915 0.0841,0.03307 0.21113,0.08577 0.28223,0.117131 0.17133,0.07556 0.26116,0.113807 0.49039,0.208798 0.10549,0.04371 0.19831,0.09002 0.20628,0.102915 l 0.0145,0.02344 h -6.93023 -6.93021 v 3.173076 3.173075 l -0.20462,0.04301 c -0.25745,0.05412 -0.6643,0.134987 -3.42194,0.680168 -1.22626,0.242428 -2.69946,0.534454 -3.27378,0.648946 -2.47243,0.492873 -4.21009,0.833058 -4.25529,0.833058 h -0.0486 v -8.219722 z m 72.26303,-0.160988 v -5.925378 l 0.0565,-0.01357 c 0.0573,-0.01379 1.87628,-0.375145 5.77144,-1.146563 1.18745,-0.235169 2.97815,-0.590258 3.97933,-0.789086 1.00119,-0.198829 1.82397,-0.358183 1.82841,-0.35412 0.004,0.0041 -0.005,0.247171 -0.021,0.540242 l -0.0291,0.532856 -2.8e-4,5.652386 -2.8e-4,5.652386 -0.0353,0.01221 c -0.0194,0.0067 -0.16863,0.0315 -0.33161,0.05508 -0.16298,0.02358 -0.87418,0.132402 -1.58044,0.241823 -0.70626,0.109421 -1.36666,0.210894 -1.46756,0.225495 -0.10089,0.0146 -0.75494,0.115087 -1.45344,0.223303 -0.6985,0.108215 -1.397,0.215832 -1.55223,0.23915 -0.32026,0.04811 -2.34575,0.360156 -3.96545,0.610915 -0.59774,0.09254 -1.11209,0.168255 -1.143,0.168255 l -0.0562,10e-7 v -5.925378 z m 15.56456,3.54194 c 0,-0.02763 0.11599,-0.20183 0.51132,-0.767956 0.20772,-0.297461 0.5862,-0.843561 0.84105,-1.213556 0.25486,-0.369995 0.52541,-0.761618 0.60123,-0.870274 0.25994,-0.37251 0.96757,-1.393935 1.44717,-2.08892 0.26388,-0.38238 0.53447,-0.773651 0.60132,-0.869492 0.0668,-0.09584 0.31073,-0.447305 0.54197,-0.781032 0.23124,-0.333728 0.48649,-0.702028 0.56722,-0.818445 0.0807,-0.116417 0.3309,-0.478367 0.55593,-0.804333 0.50728,-0.734812 0.64788,-0.937617 0.9098,-1.312334 0.89592,-1.281794 1.48589,-2.260816 1.8155,-3.012722 l 0.0773,-0.176389 h 6.50364 c 3.577,0 6.50364,0.0053 6.50364,0.01186 0,0.01376 -0.23617,0.35371 -0.47212,0.679584 -0.21384,0.295346 -1.2517,1.751623 -1.30427,1.8301 -0.0535,0.07992 -0.29504,0.418964 -0.42526,0.597011 -0.0568,0.07761 -0.35545,0.496711 -0.66375,0.931333 -0.30831,0.434622 -0.7779,1.095022 -1.04354,1.467556 -0.59309,0.831746 -1.94334,2.727501 -2.51266,3.527778 -0.2319,0.325967 -0.47893,0.670601 -0.54896,0.765854 -0.07,0.09525 -0.22042,0.306143 -0.33419,0.468644 l -0.20687,0.295457 -0.21647,0.03118 c -0.11906,0.01715 -0.38157,0.0564 -0.58336,0.08723 -0.58817,0.08986 -3.96784,0.610937 -5.05177,0.778875 -0.35702,0.05531 -0.73167,0.112496 -0.83256,0.127073 -0.10089,0.01458 -0.75494,0.115042 -1.45344,0.223258 -0.6985,0.108215 -1.397,0.215832 -1.55223,0.23915 -0.15522,0.02332 -0.86642,0.132398 -1.58044,0.242401 -0.71402,0.110003 -1.59032,0.244809 -1.94733,0.299569 -0.35702,0.05476 -0.67134,0.105988 -0.6985,0.11384 l -0.0494,0.01427 z m -55.54133,-3.535017 c -0.27164,-0.03429 -0.72884,-0.08382 -1.016,-0.110071 l -0.52212,-0.04773 -2.37066,-0.01084 -2.37067,-0.01084 -0.47978,-0.200915 c -0.49343,-0.206637 -0.76398,-0.321117 -2.72344,-1.152451 -0.62865,-0.266714 -1.2319,-0.522508 -1.34056,-0.568432 -0.10865,-0.04592 -0.2674,-0.113316 -0.35277,-0.14976 -0.26634,-0.113697 -1.991,-0.844112 -2.56823,-1.087672 -1.26927,-0.53557 -1.79614,-0.758865 -3.21733,-1.363546 -0.27164,-0.115576 -0.78599,-0.333391 -1.143,-0.484035 -0.35701,-0.150643 -0.71896,-0.303938 -0.80433,-0.340654 -0.28195,-0.121259 -1.66573,-0.707161 -2.48356,-1.051555 -0.44238,-0.186291 -1.02658,-0.433688 -1.29822,-0.549771 -0.27164,-0.116084 -0.75424,-0.321038 -1.07244,-0.455454 -0.31821,-0.134417 -0.64841,-0.274422 -0.73378,-0.311123 -0.0854,-0.0367 -0.41558,-0.176556 -0.73378,-0.31079 -0.31821,-0.134234 -0.69286,-0.293055 -0.83256,-0.352935 -0.1397,-0.05988 -0.5461,-0.231358 -0.90311,-0.381063 -0.35701,-0.149705 -0.74436,-0.313994 -0.86078,-0.365087 -0.11641,-0.05109 -0.33033,-0.142455 -0.47537,-0.203026 l -0.26371,-0.110131 14.52767,-0.0071 c 7.99021,-0.0039 14.53194,-0.0028 14.53717,0.0024 0.005,0.0052 0.006,2.186471 0.002,4.847195 l -0.007,4.837678 z m 10.97844,-0.502983 c 0,-0.04367 0.0849,-0.407175 0.45465,-1.946453 0.11185,-0.465666 0.21971,-0.93013 0.23968,-1.032142 0.02,-0.102012 0.093,-0.419512 0.16221,-0.705556 0.0693,-0.286044 0.16002,-0.66613 0.20169,-0.844635 0.11705,-0.501293 0.19983,-0.851026 0.31064,-1.312334 0.13029,-0.542426 0.22935,-0.964154 0.28505,-1.213555 0.0243,-0.108656 0.0988,-0.426156 0.16569,-0.705556 0.0669,-0.2794 0.15086,-0.631825 0.18665,-0.783166 l 0.0651,-0.275167 h 5.46732 5.46731 l 0.0186,0.09172 c 0.0102,0.05045 0.092,0.396522 0.18175,0.769055 0.0897,0.372534 0.18486,0.772584 0.21137,0.889001 0.06,0.263452 0.14362,0.619118 0.31187,1.326444 0.072,0.302683 0.16209,0.683683 0.2002,0.846667 0.1133,0.484622 0.37746,1.605796 0.4353,1.847576 0.0296,0.12364 0.049,0.229621 0.0431,0.235515 -0.0109,0.01094 -1.09948,0.229149 -3.68365,0.738406 -0.79939,0.157535 -1.56774,0.310569 -1.70744,0.340074 -0.35305,0.07457 -1.29071,0.25964 -1.91911,0.378794 -0.10866,0.0206 -0.42616,0.0832 -0.70556,0.139115 -0.2794,0.05591 -0.64135,0.127739 -0.80433,0.159617 -0.16298,0.03188 -0.41698,0.08322 -0.56445,0.114085 -0.25103,0.05255 -1.59484,0.319176 -3.96157,0.786019 -0.55679,0.109828 -1.02352,0.199688 -1.03716,0.199688 h -0.0248 z m 28.38662,-6.09075 c -0.003,-0.312847 -0.01,-0.514839 -0.0157,-0.44887 l -0.0108,0.119945 h -0.023 -0.023 l -0.0224,-0.910167 c -0.0205,-0.835838 -0.0242,-1.102422 -0.016,-1.178278 l 0.003,-0.02822 h 5.84396 5.84396 l -0.009,0.0635 -0.009,0.0635 h -0.0423 -0.0423 l -0.009,0.07744 -0.009,0.07744 0.0474,-0.01819 0.0474,-0.01819 -0.0215,0.124192 c -0.0118,0.06831 -0.0203,0.143241 -0.0188,0.166524 0.001,0.02328 -0.003,0.08303 -0.011,0.132771 l -0.0137,0.09044 -0.0459,-0.01762 -0.0459,-0.01762 0.0186,0.03001 0.0185,0.03001 -0.0633,0.01487 c -0.0348,0.0082 -0.1544,0.01583 -0.26575,0.017 l -0.20244,0.0021 -0.0751,0.02855 -0.0751,0.02855 -0.0329,-0.01973 -0.0329,-0.01973 0.0333,0.04122 0.0333,0.04123 -0.10387,0.0053 c -0.0571,0.0029 -0.12293,0.01018 -0.14621,0.01611 -0.0233,0.0059 -0.0901,0.02061 -0.14848,0.03262 -0.0584,0.01201 -0.1131,0.0331 -0.12161,0.04687 l -0.0155,0.02502 h -0.0633 -0.0632 l -0.0307,-0.03068 -0.0307,-0.03068 -0.019,0.03068 -0.019,0.03068 h -0.0774 -0.0773 l -0.038,0.03528 -0.038,0.03528 0.0226,-0.03968 0.0226,-0.03968 -0.0926,0.01852 c -0.0509,0.01018 -0.1037,0.01852 -0.11728,0.01852 -0.0136,0 -0.0247,0.01761 -0.0247,0.03913 v 0.03913 l -0.12635,0.01895 -0.12634,0.01895 -0.0174,0.02824 -0.0175,0.02824 -0.0855,-0.01878 -0.0855,-0.01878 0.0193,0.03124 0.0193,0.03124 -0.14983,0.0056 c -0.0824,0.0031 -0.21333,0.0045 -0.29094,0.0032 l -0.14111,-0.0024 0.0549,0.02031 0.0549,0.02031 -0.069,0.02004 c -0.11586,0.03363 -0.6,0.107942 -0.68885,0.10574 l -0.0836,-0.0021 -0.0716,0.04819 -0.0716,0.04819 -0.20101,5.27e-4 -0.20102,5.28e-4 0.0115,0.0301 0.0115,0.0301 -0.24798,0.05036 c -0.13639,0.0277 -0.30513,0.06236 -0.37498,0.07702 l -0.127,0.02666 -0.0847,-0.01536 -0.0847,-0.01536 0.0384,0.02473 0.0384,0.02473 -0.0949,0.01604 c -0.0522,0.0088 -0.2155,0.03664 -0.36296,0.06181 -0.14746,0.02518 -0.31604,0.04996 -0.37461,0.05507 l -0.1065,0.0093 -0.0461,0.03818 -0.0461,0.03818 -0.21975,-0.0052 -0.21975,-0.0052 0.0132,0.03449 0.0132,0.03449 -0.17712,0.03534 c -0.0974,0.01944 -0.21831,0.04833 -0.26867,0.06419 l -0.0916,0.02885 -0.0288,-0.01777 -0.0288,-0.01777 -0.15588,0.04531 -0.15587,0.04531 -0.0989,-0.01855 -0.0989,-0.01855 0.008,0.03761 0.008,0.03761 -0.19755,0.02924 c -0.10866,0.01608 -0.21026,0.03654 -0.22578,0.04546 -0.0155,0.0089 -0.0954,0.01418 -0.17763,0.01168 l -0.1494,-0.0045 0.0325,0.02007 0.0325,0.02007 -0.038,0.02345 -0.0379,0.02346 -0.19789,-0.0036 c -0.10884,-0.002 -0.22031,0.0027 -0.2477,0.01033 l -0.0498,0.01389 0.0155,0.02509 0.0155,0.02509 -0.14272,0.01893 -0.14273,0.01893 -0.0146,0.02358 -0.0146,0.02358 -0.0785,-0.0157 -0.0785,-0.01569 -0.099,0.04137 -0.099,0.04137 -0.10551,-0.0064 -0.10551,-0.0064 0.0371,0.02565 0.0371,0.02565 -0.12082,-0.01841 -0.12082,-0.01841 0.008,0.03568 0.008,0.03568 -0.26811,0.04066 c -0.14747,0.02236 -0.31462,0.04183 -0.37145,0.04327 l -0.10335,0.0026 0.0417,0.03052 0.0417,0.03052 -0.0513,0.0045 c -0.0282,0.0025 -0.13383,0.0071 -0.23473,0.01025 l -0.18344,0.0058 -0.0166,0.02536 c -0.009,0.01395 -0.0472,0.02886 -0.0847,0.03314 -0.0374,0.0043 -0.0998,0.01559 -0.13861,0.02513 -0.0388,0.0096 -0.12453,0.02329 -0.1905,0.03053 l -0.11995,0.01318 -0.005,-0.568814 z"
       id="path1499" />
  </g>
</svg>
