<?xml version="1.0" encoding="UTF-8" standalone="no"?>
<!-- Created with Inkscape (http://www.inkscape.org/) -->

<svg
   width="183.76244mm"
   height="23.655497mm"
   viewBox="0 0 183.76243 23.655497"
   version="1.1"
   id="svg5"
   inkscape:version="1.1.1 (3bf5ae0d25, 2021-09-20)"
   sodipodi:docname="the mould.svg"
   xmlns:inkscape="http://www.inkscape.org/namespaces/inkscape"
   xmlns:sodipodi="http://sodipodi.sourceforge.net/DTD/sodipodi-0.dtd"
   xmlns="http://www.w3.org/2000/svg"
   xmlns:svg="http://www.w3.org/2000/svg">
  <sodipodi:namedview
     id="namedview7"
     pagecolor="#ffffff"
     bordercolor="#666666"
     borderopacity="1.0"
     inkscape:pageshadow="2"
     inkscape:pageopacity="0.0"
     inkscape:pagecheckerboard="0"
     inkscape:document-units="mm"
     showgrid="false"
     fit-margin-top="0"
     fit-margin-left="0"
     fit-margin-right="0"
     fit-margin-bottom="0"
     inkscape:zoom="3.1"
     inkscape:cx="336.45161"
     inkscape:cy="4.1935484"
     inkscape:window-width="3840"
     inkscape:window-height="2066"
     inkscape:window-x="-11"
     inkscape:window-y="-11"
     inkscape:window-maximized="1"
     inkscape:current-layer="layer1" />
  <defs
     id="defs2" />
  <g
     inkscape:label="Layer 1"
     inkscape:groupmode="layer"
     id="layer1"
     transform="translate(-73.295129,-122.68384)">
    <path
       style="fill:#000000;stroke-width:0.0282222"
       d="m 183.36766,146.31274 -0.3755,-0.0227 -0.34416,-0.0583 c -1.2218,-0.20688 -2.10017,-0.63783 -2.89466,-1.42019 l -0.29273,-0.28825 -0.20317,-0.26811 c -1.11577,-1.4724 -1.59397,-3.28453 -1.82465,-6.91445 l -0.0296,-0.46566 -0.0156,-1.778 -0.0156,-1.778 0.0327,-0.80434 c 0.13246,-3.262 0.51076,-5.26948 1.27751,-6.77934 l 0.16788,-0.33056 0.2146,-0.31855 c 0.93992,-1.39518 2.1104,-2.11091 3.84599,-2.35175 l 0.35277,-0.049 0.59267,-8.5e-4 0.59267,-8.5e-4 0.26811,0.0345 c 0.40618,0.0523 0.82649,0.13987 1.17189,0.24424 l 0.31112,0.094 0.29566,0.13339 c 2.41356,1.08889 3.49332,3.52709 3.81077,8.60507 l 0.03,0.47977 0.0162,1.66511 0.0162,1.66512 -0.033,0.88357 c -0.0706,1.89168 -0.20344,3.21957 -0.43957,4.39398 l -0.0965,0.47978 -0.11303,0.39063 c -0.28321,0.97879 -0.6673,1.78728 -1.16859,2.45981 l -0.16829,0.22578 -0.29948,0.3059 -0.29948,0.30589 -0.21167,0.16205 c -0.69718,0.53375 -1.45591,0.85078 -2.43496,1.01745 l -0.33241,0.0566 -0.48603,0.0282 c -0.26733,0.0155 -0.49874,0.0265 -0.51427,0.0244 -0.0155,-0.002 -0.1972,-0.0139 -0.40373,-0.0264 z m 0.89683,-4.02132 c 0.60168,-0.17868 1.0007,-0.83065 1.18274,-1.93252 l 0.058,-0.3511 0.0286,-0.42535 c 0.0157,-0.23394 0.0432,-1.12929 0.061,-1.98966 l 0.0323,-1.56432 -0.017,-2.63878 -0.017,-2.63878 -0.0286,-0.67733 c -0.0349,-0.8264 -0.0709,-1.23142 -0.1453,-1.63374 l -0.0568,-0.30728 -0.098,-0.29949 -0.098,-0.29949 -0.11894,-0.21097 -0.11894,-0.21097 -0.14111,-0.14225 c -0.0776,-0.0782 -0.19364,-0.1762 -0.25785,-0.2177 l -0.11674,-0.0754 -0.16548,-0.0487 -0.16548,-0.0487 h -0.21167 -0.21167 l -0.16563,0.0487 c -0.18849,0.0555 -0.31923,0.13169 -0.49208,0.28686 l -0.12022,0.10792 -0.11214,0.17757 c -0.38418,0.6083 -0.52197,1.28501 -0.59663,2.93009 l -0.0359,0.79022 3.9e-4,3.61245 4e-4,3.61244 0.035,0.762 c 0.0506,1.10094 0.10951,1.56597 0.26464,2.08845 l 0.0838,0.28222 0.12807,0.24801 0.12806,0.248 0.15887,0.16315 c 0.18792,0.19297 0.34133,0.29527 0.52943,0.35303 l 0.13745,0.0422 0.25593,0.002 0.25593,0.002 0.15057,-0.0447 z m 21.15335,3.75349 c -1.60705,-0.1212 -2.73672,-0.50166 -3.76767,-1.26892 l -0.28962,-0.21554 -0.25413,-0.24433 -0.25413,-0.24432 -0.20186,-0.254 c -0.6985,-0.8789 -1.06653,-1.85435 -1.17206,-3.10653 l -0.0287,-0.34076 -0.001,-8.4928 -0.001,-8.4928 2.20922,-0.008 2.20921,-0.008 v 8.37569 8.37569 l 0.0488,0.2905 0.0488,0.29049 0.0867,0.25984 0.0867,0.25984 0.10885,0.18344 0.10885,0.18345 0.15877,0.15954 0.15877,0.15955 0.1683,0.10025 0.1683,0.10026 0.23292,0.0774 0.23291,0.0775 0.508,-3.4e-4 0.508,-3.4e-4 0.24607,-0.0755 0.24606,-0.0755 0.19138,-0.12297 c 0.23899,-0.15358 0.37294,-0.28793 0.54268,-0.54432 l 0.13298,-0.20088 0.0903,-0.27223 0.0903,-0.27223 0.0486,-0.28889 0.0486,-0.2889 v -8.37494 -8.37495 h 2.21159 2.21159 l -0.0218,0.0917 -0.0218,0.0917 -0.0184,8.62189 -0.0184,8.62189 -0.0347,0.22578 c -0.26498,1.72575 -0.91107,2.87994 -2.11275,3.77426 l -0.27863,0.20736 -0.30932,0.17356 c -0.74072,0.41563 -1.54804,0.67167 -2.52476,0.80074 l -0.40922,0.0541 -0.62089,0.0109 c -0.34149,0.006 -0.68439,0.006 -0.762,2.8e-4 z m -50.4807,-0.3995 c -0.005,-0.0118 -0.006,-5.00296 -0.002,-11.09155 l 0.007,-11.07017 h 2.34932 l 2.34933,1e-5 0.0789,0.52916 c 0.0434,0.29104 0.14849,0.98636 0.23356,1.54516 0.0851,0.5588 0.21158,1.39065 0.28112,1.84856 0.0695,0.4579 0.13898,0.90875 0.15431,1.00189 0.0153,0.0931 0.079,0.51223 0.14141,0.93133 0.0624,0.4191 0.1575,1.04775 0.21124,1.397 0.0537,0.34925 0.14246,0.93345 0.19716,1.29822 0.0547,0.36477 0.11228,0.73943 0.12797,0.83256 0.0157,0.0931 0.13012,0.84243 0.25429,1.66511 0.22173,1.46911 0.27496,1.81843 0.46227,3.03389 l 0.0935,0.60678 0.0178,-0.0706 c 0.01,-0.0388 0.1707,-1.06667 0.35764,-2.28414 0.37313,-2.43002 0.42735,-2.78203 0.50893,-3.30386 0.0653,-0.41736 0.5116,-3.31811 0.79037,-5.13645 0.10828,-0.70626 0.20963,-1.36031 0.22523,-1.45344 0.0587,-0.35057 0.36581,-2.36888 0.36581,-2.40428 v -0.0369 h 2.33538 2.33539 l -0.009,10.61861 -0.009,10.61862 0.0324,0.43744 c 0.0178,0.24059 0.0344,0.45014 0.037,0.46567 l 0.005,0.0282 -1.73194,0.007 -1.73194,0.007 0.0228,-0.0778 0.0228,-0.0778 0.006,-5.06589 0.006,-5.06589 -0.0214,0.0847 c -0.0118,0.0466 -0.11203,0.46566 -0.2228,0.93133 -0.11078,0.46567 -0.25924,1.08797 -0.32992,1.38289 -0.0707,0.29492 -0.14678,0.61877 -0.16913,0.71967 -0.0223,0.10089 -0.12846,0.55174 -0.23581,1.00189 -0.10735,0.45014 -0.39495,1.66299 -0.63911,2.69522 -0.24415,1.03223 -0.52833,2.23237 -0.63151,2.667 l -0.18758,0.79022 -1.1432,0.007 -1.1432,0.007 -0.0904,-0.38837 c -0.0497,-0.2136 -0.19891,-0.86461 -0.33151,-1.4467 -0.13261,-0.58208 -0.25336,-1.10913 -0.26835,-1.17122 -0.015,-0.0621 -0.0847,-0.36689 -0.15497,-0.67733 -0.0702,-0.31045 -0.14003,-0.61525 -0.15507,-0.67734 -0.049,-0.20228 -0.13679,-0.58399 -0.23684,-1.03011 -0.13052,-0.58194 -0.33948,-1.49554 -0.42604,-1.86266 -0.0384,-0.16299 -0.1085,-0.46779 -0.15572,-0.67734 -0.0472,-0.20955 -0.12302,-0.53975 -0.16846,-0.73378 -0.0455,-0.19402 -0.1536,-0.67027 -0.24033,-1.05833 -0.0867,-0.38806 -0.16857,-0.73096 -0.18185,-0.762 l -0.0241,-0.0564 -0.004,4.826 -0.004,4.826 0.0307,0.40699 c 0.0169,0.22384 0.0331,0.42069 0.0361,0.43744 l 0.005,0.0305 -1.7127,0.007 -1.7127,0.007 -0.009,-0.0214 z m -59.634793,-10.73878 0.0076,-10.7315 -0.02218,-0.34572 -0.02218,-0.34572 2.286451,-2e-5 2.286451,-2e-5 -0.0188,0.31752 -0.0188,0.31752 -0.0024,4.08517 -0.0024,4.08516 h 2.244521 2.24453 l -0.01,-4.32505 -0.01,-4.32506 -0.0224,-0.0776 -0.0224,-0.0776 h 2.31046 2.31045 v 11.07722 11.07722 l -2.286,1e-5 h -2.286 l 0.008,-4.84011 0.008,-4.84012 h -2.24602 -2.246015 l 0.0089,4.84012 0.0089,4.84011 H 97.553237 95.29546 l 0.0076,-10.73151 z m 22.352183,10.4564 0.0204,-0.27523 v -10.92906 -10.92905 h 6.24417 6.24417 v 1.90429 1.9043 l -0.0776,-0.0136 c -0.0427,-0.008 -0.17921,-0.0282 -0.30339,-0.0461 l -0.22578,-0.0325 -3.68163,-0.0113 -3.68163,-0.0113 -0.0649,0.0163 -0.0649,0.0163 v 2.58179 2.5818 h 3.66888 3.66889 v 1.93312 1.93311 l -3.66183,0.007 -3.66183,0.007 -0.007,2.94378 -0.007,2.94377 3.94419,-0.0144 c 2.1693,-0.008 4.00461,-0.0182 4.07846,-0.0228 l 0.13428,-0.008 2.8e-4,1.89089 2.8e-4,1.89089 -6.29321,0.007 -6.29321,0.007 0.0204,-0.27523 z m -39.941398,0.0917 0.01945,-0.14111 0.01157,-8.984 0.01157,-8.98399 -2.166609,0.0138 c -1.191635,0.008 -2.195176,0.0181 -2.230092,0.0234 l -0.06348,0.01 -4.06e-4,-1.98261 c -2.23e-4,-1.09044 0.0061,-1.98262 0.0141,-1.98262 h 6.801945 6.787444 v 1.99296 1.99296 l -0.07761,-0.0207 -0.07761,-0.0207 -2.180591,-0.0132 -2.180592,-0.0132 0.0088,9.06878 c 0.0048,4.98782 0.01455,9.09091 0.02159,9.11798 l 0.01281,0.0492 -2.365859,0.007 -2.365859,0.007 0.01945,-0.14111 z m 143.629468,-0.0988 0.0208,-0.23989 v -10.61155 -10.61156 l -0.0218,-0.23251 -0.0218,-0.23251 2.34308,-0.007 c 1.2887,-0.004 2.34308,-0.006 2.34308,-0.005 0,0.001 -0.019,0.12835 -0.0422,0.28222 l -0.0422,0.27976 -2.8e-4,8.82791 -2.8e-4,8.82791 4.07106,-0.0111 4.07105,-0.0111 0.0776,-0.0218 0.0776,-0.0218 v 2.00694 2.00695 l -6.4484,0.007 -6.4484,0.007 0.0208,-0.23989 z m 22.31644,0.22578 c -0.005,-0.008 0.003,-0.12942 0.0172,-0.27034 l 0.0258,-0.25622 -0.009,-10.73633 -0.009,-10.73634 -0.023,-0.0776 -0.023,-0.0776 2.6209,2.9e-4 2.6209,2.8e-4 0.46567,0.0413 c 1.46541,0.12988 2.68833,0.51088 3.74889,1.16798 l 0.34811,0.21569 0.28689,0.22719 c 2.04056,1.61599 3.09177,4.2712 3.29556,8.32414 l 0.0326,0.64911 -0.0181,0.87489 -0.0181,0.87489 -0.041,0.51273 c -0.13269,1.66085 -0.39155,2.91592 -0.86052,4.17216 l -0.1475,0.39511 -0.21075,0.42924 -0.21074,0.42925 -0.21942,0.35031 -0.21942,0.35031 -0.25047,0.31927 -0.25048,0.31926 -0.29747,0.29822 c -1.20369,1.20671 -2.61605,1.84708 -4.71424,2.13747 l -0.35278,0.0488 -2.78965,0.0155 c -1.53431,0.008 -2.79353,0.009 -2.79826,0.001 z m 5.05169,-3.82934 0.28222,-0.0429 0.33335,-0.0958 0.33335,-0.0958 0.3025,-0.15081 c 0.46993,-0.23427 0.74017,-0.4402 1.06947,-0.81498 l 0.176,-0.20031 0.13616,-0.22848 c 0.46602,-0.78204 0.6906,-1.65686 0.83027,-3.23416 l 0.0362,-0.40922 v -1.79212 -1.79211 l -0.0368,-0.56444 c -0.12865,-1.97243 -0.34164,-2.79987 -0.9226,-3.58422 -0.62775,-0.84751 -1.82922,-1.42103 -2.98464,-1.42471 l -0.16228,-5.2e-4 v 7.25515 7.25514 l 0.16228,-0.0185 c 0.0892,-0.0102 0.28927,-0.0378 0.4445,-0.0614 z"
       id="path1499"
       sodipodi:nodetypes="ccsscssccccscsccccsscsscccsccsscccsscsccccsccccccsscccccccccccccscsccccsscccssccccccscccsscccccccccccccccccccccccsscccccccccccccsscsscscccccccscccscssssccscscscccccccccccccccsscsssccccsscsscsccccccccccccccccccccccccccccccccccccccccccccccccccccccccccccccccccccccccccccccccccccccsscccccccccsccccccccccccssccccccccccccccscccccccsscsscccsscccccccssccccccccsscsscccssscccccc" />
  </g>
</svg>
